<svg xmlns="http://www.w3.org/2000/svg" viewBox="0 0 502 502">
	<rect x="74.601" y="434.024" fill="white" width="352.797" height="57.976"/>
    <rect x="74.601" y="10" fill="white" width="352.797" height="424.024"/>
	<path fill="#F9BA48" d="M371.719,180.807c0,53.722-97.272,180.73-97.272,180.73s-97.272-127.008-97.272-180.73    s43.55-97.272,97.272-97.272S371.719,127.085,371.719,180.807z"/>
    <circle fill="white" cx="274.447" cy="180.807" r="54.68"/>
	<path d="M437.399,10c0-5.522-4.477-10-10-10H74.601c-5.523,0-10,4.478-10,10v482c0,5.522,4.477,10,10,10h352.797    c5.523,0,10-4.478,10-10V10z M84.601,20h21.573v313c0,5.522,4.477,10,10,10s10-4.478,10-10V20h291.224v404.023H84.601V20z     M417.399,482H84.601v-37.977h332.797V482z"/>
    <path d="M274.447,73.535c-59.15,0-107.272,48.122-107.272,107.272c0,24.201,16.884,63.18,50.184,115.854    c24.277,38.403,48.903,70.635,49.149,70.956c1.892,2.471,4.827,3.92,7.939,3.92s6.047-1.449,7.939-3.92    c0.246-0.321,24.872-32.553,49.149-70.956c33.299-52.675,50.184-91.653,50.184-115.854    C381.719,121.657,333.596,73.535,274.447,73.535z M274.447,344.861c-30.161-41.013-87.272-126.437-87.272-164.054    c0-48.122,39.15-87.272,87.272-87.272s87.272,39.15,87.272,87.272C361.719,218.425,304.607,303.849,274.447,344.861z"/>
    <path d="M274.447,116.128c-35.665,0-64.68,29.016-64.68,64.68s29.015,64.68,64.68,64.68s64.68-29.016,64.68-64.68    S310.111,116.128,274.447,116.128z M274.447,225.487c-24.636,0-44.68-20.043-44.68-44.68s20.043-44.68,44.68-44.68    s44.68,20.043,44.68,44.68S299.083,225.487,274.447,225.487z"/>
    <path d="M116.175,361c-5.523,0-10,4.478-10,10v24c0,5.522,4.477,10,10,10s10-4.478,10-10v-24    C126.175,365.478,121.698,361,116.175,361z"/>
</svg>
