<svg xmlns="http://www.w3.org/2000/svg" viewBox="0 0 295.238 295.238">
		<polygon fill="#333333" points="0,295.238 71.429,295.238 71.429,285.714 9.524,285.714 9.524,128.571 71.429,128.571     71.429,119.048 0,119.048   "/>
        <polygon fill="#333333" points="223.809,119.048 223.809,128.571 285.714,128.571 285.714,285.714 223.809,285.714     223.809,295.238 295.238,295.238 295.238,119.048   "/>
        <path fill="#333333" d="M52.381,142.857H23.81v28.571h28.571C52.381,171.428,52.381,142.857,52.381,142.857z     M42.857,161.905h-9.524v-9.524h9.524C42.857,152.381,42.857,161.905,42.857,161.905z"/>
        <path fill="#333333" d="M52.381,185.714H23.81v28.571h28.571C52.381,214.285,52.381,185.714,52.381,185.714z     M42.857,204.762h-9.524v-9.524h9.524C42.857,195.238,42.857,204.762,42.857,204.762z"/>
        <path fill="#333333" d="M23.81,257.143h28.571v-28.571H23.81V257.143z M33.333,238.095h9.524v9.524h-9.524V238.095z"/>
        <path fill="#333333" d="M271.428,142.857h-28.571v28.571h28.571V142.857z M261.905,161.905h-9.524v-9.524h9.524V161.905z"/>
        <path fill="#333333" d="M242.857,214.286h28.571v-28.571h-28.571L242.857,214.286L242.857,214.286z M252.381,195.238h9.524    v9.524h-9.524V195.238z"/>
        <path fill="#333333" d="M242.857,257.143h28.571v-28.571h-28.571L242.857,257.143L242.857,257.143z M252.381,238.095h9.524    v9.524h-9.524V238.095z"/>
        <path fill="#F9BA48" d="M228.571,295.238H66.667V38.095h161.905L228.571,295.238L228.571,295.238z"/>
        <polygon fill="#333333" points="223.809,9.524 223.809,0 214.286,0 209.524,0 85.714,0 80.952,0 71.429,0 71.429,9.524     80.952,9.524 80.952,42.857 90.476,42.857 90.476,9.524 204.762,9.524 204.762,42.857 214.286,42.857 214.286,9.524   "/>
        <path fill="#333333" d="M119.048,61.905H90.476v28.571h28.571L119.048,61.905L119.048,61.905z M109.524,80.952H100v-9.524    h9.524V80.952z"/>
        <path fill="#333333" d="M161.905,61.905h-28.571v28.571h28.571V61.905z M152.381,80.952h-9.524v-9.524h9.524V80.952z"/>
        <path fill="#333333" d="M204.762,61.905H176.19v28.571h28.571L204.762,61.905L204.762,61.905z M195.238,80.952h-9.524    v-9.524h9.524V80.952z"/>
        <path fill="#333333" d="M195.238,209.524H100h-4.762h-9.524v9.524h9.524v76.19H200v-76.19h9.524v-9.524H200H195.238z     M104.762,219.048h38.095v19.048h-4.762c-7.876,0-14.286,6.41-14.286,14.286s6.41,14.286,14.286,14.286h4.762v19.048h-38.095    C104.762,285.716,104.762,219.048,104.762,219.048z M142.857,257.143h-4.762c-2.624,0-4.762-2.133-4.762-4.762    s2.138-4.762,4.762-4.762h4.762V257.143z M152.381,247.619h4.762c2.624,0,4.762,2.133,4.762,4.762s-2.138,4.762-4.762,4.762    h-4.762V247.619z M190.476,285.714h-38.095v-19.048h4.762c7.876,0,14.286-6.41,14.286-14.286s-6.41-14.286-14.286-14.286h-4.762    v-19.048h38.095V285.714z"/>
        <path fill="#333333" d="M90.476,133.333h28.571v-28.571H90.476V133.333z M100,114.286h9.524v9.524H100V114.286z"/>
        <path fill="#333333" d="M133.333,133.333h28.571v-28.571h-28.571V133.333z M142.857,114.286h9.524v9.524h-9.524V114.286z"/>
        <path fill="#333333" d="M176.19,133.333h28.571v-28.571H176.19V133.333z M185.714,114.286h9.524v9.524h-9.524V114.286z"/>
        <path fill="#333333" d="M90.476,176.19h28.571v-28.571H90.476V176.19z M100,157.143h9.524v9.524H100V157.143z"/>
        <path fill="#333333" d="M133.333,176.19h28.571v-28.571h-28.571V176.19z M142.857,157.143h9.524v9.524h-9.524V157.143z"/>
        <path fill="#333333" d="M176.19,176.19h28.571v-28.571H176.19V176.19z M185.714,157.143h9.524v9.524h-9.524V157.143z"/>
        <rect x="85.714" y="190.476" fill="#333333" width="104.762" height="9.524"/>
        <rect x="200" y="190.476" fill="#333333" width="9.524" height="9.524"/>
</svg>
