<svg xmlns="http://www.w3.org/2000/svg" width="54" height="43" viewBox="0 0 54 43" fill="none">
    <path d="M1.51685 33.0082L3.03371 32.7059V34.9128H5.23315V36.0465H3.03371V40.8988C3.03371 41.5136 3.28652 41.8209 3.79213 41.8209C4.11573 41.8209 4.51011 41.695 4.97528 41.443L5.38483 42.2442C4.69719 42.7481 3.98933 43 3.26124 43C2.74551 43 2.32584 42.8312 2.00225 42.4936C1.67865 42.156 1.51685 41.5942 1.51685 40.8081V36.0465H0V35.064L1.51685 34.9128V33.0082ZM6.90169 37.1803L6.82584 35.2907C7.91798 34.8876 8.9191 34.6861 9.82921 34.6861C10.7191 34.6861 11.4017 34.865 11.877 35.2227C12.3522 35.5805 12.5899 36.1826 12.5899 37.0291V41.6395L13.8034 41.9419V42.7733L11.4522 42.8488L11.1337 41.7907C10.3247 42.5969 9.52584 43 8.73708 43C7.94831 43 7.35674 42.8035 6.96236 42.4105C6.56798 42.0174 6.37079 41.4581 6.37079 40.7326C6.37079 39.1706 7.53371 38.3896 9.85955 38.3896H11.073V37.1803C11.073 36.2733 10.5927 35.8198 9.63202 35.8198C9.08595 35.8198 8.63595 35.8752 8.28202 35.9861L8.1 36.0465L7.88764 37.1803H6.90169ZM11.073 40.5814V39.3721H10.0112C9.25281 39.3721 8.71433 39.4704 8.39579 39.6669C8.07725 39.8634 7.91798 40.1682 7.91798 40.5814C7.91798 40.9744 8.01152 41.2742 8.1986 41.4808C8.38567 41.6874 8.65618 41.7907 9.01011 41.7907C9.18202 41.7907 9.35646 41.7605 9.53343 41.7C9.71039 41.6395 9.8823 41.564 10.0492 41.4733C10.216 41.3826 10.3652 41.2843 10.4966 41.1785C10.6281 41.0727 10.7343 40.9744 10.8152 40.8837L11.073 40.5814ZM14.6376 31.2849L17.4438 31.2094V37.8605H18.7331L19.8708 35.9558L19.1882 35.7442V34.9128L22.5253 34.8372V35.7442L21.4483 35.9256H21.4331L19.8708 38.2384L21.8275 41.6395H21.8427L22.9803 42.0174V42.8488H20.9326L18.7635 38.9942H17.4438V41.6395L18.4298 42.0174V42.8488H14.6376V42.0174L15.927 41.6395V32.4187L14.6376 32.1163V31.2849ZM30.6404 38.2384L30.5646 39.0396L25.3315 39.0698C25.3315 39.8961 25.5312 40.5562 25.9306 41.05C26.3301 41.5438 26.8635 41.7907 27.5309 41.7907C27.7534 41.7907 27.9758 41.7705 28.1983 41.7302C28.4208 41.6899 28.6306 41.6395 28.8278 41.5791C29.025 41.5186 29.2045 41.4506 29.3663 41.375C29.5281 41.2994 29.6646 41.2264 29.7758 41.1558L30.0792 40.9593L30.6101 41.7454C30.2663 42.0174 29.9503 42.2316 29.6621 42.3878C29.3739 42.544 29.0351 42.6851 28.6458 42.811C28.2565 42.937 27.8343 43 27.3792 43C26.186 43 25.2809 42.6397 24.664 41.9192C24.0472 41.1987 23.7388 40.2136 23.7388 38.964C23.7388 38.3392 23.8298 37.7648 24.0118 37.2407C24.1938 36.7167 24.4492 36.2657 24.7778 35.8878C25.1065 35.5099 25.4983 35.2152 25.9534 35.0035C26.4084 34.7919 26.909 34.6861 27.4551 34.6861C29.5787 34.6861 30.6404 35.8702 30.6404 38.2384ZM25.3921 37.9361H29.0326C29.0326 37.3213 28.9011 36.8225 28.6382 36.4396C28.3753 36.0566 27.9506 35.8651 27.364 35.8651C26.7876 35.8651 26.3275 36.0591 25.9837 36.4471C25.6399 36.8351 25.4427 37.3314 25.3921 37.9361ZM31.7781 38.964C31.7781 38.319 31.8716 37.732 32.0587 37.2029C32.2458 36.6739 32.5112 36.2229 32.8551 35.85C33.1989 35.4772 33.6059 35.19 34.0761 34.9884C34.5463 34.7869 35.0646 34.6861 35.6309 34.6861C36.7635 34.6861 37.6433 35.0438 38.2702 35.7593C38.8972 36.4748 39.2107 37.4675 39.2107 38.7372C39.2107 39.362 39.1197 39.9339 38.9376 40.4529C38.7556 40.9719 38.5003 41.4204 38.1716 41.7983C37.843 42.1762 37.4435 42.4709 36.9733 42.6826C36.5031 42.8942 35.9798 43 35.4034 43C34.2506 43 33.3581 42.6574 32.7261 41.9721C32.0941 41.2868 31.7781 40.2841 31.7781 38.964ZM35.5702 35.8954C34.1039 35.8954 33.3708 36.8779 33.3708 38.843C33.3708 40.8081 34.0787 41.7907 35.4944 41.7907C36.2326 41.7907 36.7711 41.5388 37.1098 41.0349C37.4486 40.531 37.618 39.7752 37.618 38.7675C37.618 36.8527 36.9354 35.8954 35.5702 35.8954ZM40.8792 36.0465V35.064L42.2444 34.9128V34.0059C42.2444 33.0888 42.4871 32.3683 42.9725 31.8442C43.4579 31.3202 44.1506 31.0582 45.0506 31.0582C45.4753 31.0582 45.8772 31.101 46.2565 31.1867C46.6357 31.2723 46.9062 31.3605 47.068 31.4512L47.3258 31.5873V33.4768H46.264L46.0365 32.2675C45.7837 32.2171 45.4399 32.1919 45.0051 32.1919C44.1758 32.1919 43.7612 32.6958 43.7612 33.7035V34.9128H45.7635L45.718 36.0465H43.7612V41.6395L45.2326 42.0174V42.8488H40.9551V42.0174L42.2444 41.6395V36.0465H40.8792ZM47.5534 36.0465V35.064L48.9185 34.9128V34.0059C48.9185 33.0888 49.1612 32.3683 49.6466 31.8442C50.132 31.3202 50.8247 31.0582 51.7247 31.0582C52.1494 31.0582 52.5514 31.101 52.9306 31.1867C53.3098 31.2723 53.5803 31.3605 53.7421 31.4512L54 31.5873V33.4768H52.9382L52.7107 32.2675C52.4579 32.2171 52.114 32.1919 51.6792 32.1919C50.85 32.1919 50.4354 32.6958 50.4354 33.7035V34.9128H52.4376L52.3921 36.0465H50.4354V41.6395L51.9067 42.0174V42.8488H47.6292V42.0174L48.9185 41.6395V36.0465H47.5534Z" fill="#354452"/>
    <path d="M33.8564 30.6764C31.3693 30.6764 28.6988 29.8151 26.2042 29.0107C22.2257 27.7281 18.4666 26.5168 16.1003 28.6545C15.6995 29.0167 15.0793 28.986 14.7158 28.5866C14.3523 28.1871 14.3826 27.5691 14.7839 27.2069C17.9915 24.3098 22.473 25.7546 26.8075 27.1524C31.3385 28.6131 35.6175 29.9932 38.3165 26.7163C38.659 26.2996 39.2782 26.2387 39.6944 26.5809C40.1134 26.9232 40.1746 27.5375 39.8311 27.9551C38.1564 29.9877 36.0794 30.6764 33.8564 30.6764Z" fill="#2A96F5"/>
    <path d="M33.9487 26.5979C32.8424 26.5979 31.7812 26.4235 30.8671 26.2264C30.3375 26.112 30.0015 25.5926 30.1163 25.0657C30.2311 24.5379 30.7514 24.2022 31.282 24.3175C34.7159 25.0596 36.8624 24.5556 38.448 22.6309C38.7905 22.2142 39.4097 22.1533 39.8259 22.4955C40.2449 22.8378 40.3051 23.453 39.9626 23.8697C38.2049 26.0041 35.9968 26.5979 33.9487 26.5979Z" fill="#2A96F5"/>
    <path d="M15.6754 25.2569C15.4085 25.2569 15.1425 25.149 14.9489 24.9369C14.5858 24.5365 14.6157 23.9195 15.017 23.5572C15.8429 22.8113 16.8233 22.3082 17.9325 22.0631C18.4621 21.9515 18.9843 22.2784 19.1014 22.8053C19.219 23.3322 18.8853 23.8534 18.3566 23.9706C17.5736 24.1431 16.9115 24.4812 16.3333 25.0044C16.1453 25.1741 15.9101 25.2569 15.6754 25.2569Z" fill="#2A96F5"/>
    <path d="M37.5184 10.1114C37.2305 8.54285 36.6141 7.08921 35.7359 5.82529C35.9137 5.57697 36.0122 5.28214 36.0112 4.97058C36.0112 4.57439 35.8563 4.20284 35.5763 3.92476L34.8153 3.16585C34.3141 2.66688 33.4835 2.6148 32.9096 3.00774C31.6408 2.13164 30.1816 1.51736 28.6068 1.2309C28.4864 0.533377 27.8793 0 27.1458 0H26.0688C25.3353 0 24.7282 0.533377 24.6078 1.2309C23.0329 1.51736 21.5738 2.13211 20.305 3.00774C19.732 2.61573 18.9004 2.66688 18.3998 3.16585L17.6396 3.92336C17.3582 4.20284 17.2033 4.57439 17.2029 4.97058C17.2024 5.28214 17.3013 5.57697 17.4782 5.82529C16.6 7.08874 15.984 8.54285 15.6966 10.1114C14.9966 10.2313 14.4619 10.8363 14.4619 11.5673V12.6406C14.4619 13.3716 14.9966 13.9766 15.6966 14.0966C15.984 15.6655 16.6009 17.1192 17.4786 18.3836C17.0685 18.9611 17.1193 19.7661 17.6387 20.2836L18.3998 21.0421C18.6807 21.322 19.0535 21.4764 19.4506 21.4764C19.7628 21.4764 20.0582 21.3774 20.3069 21.2011C21.5752 22.0767 23.0338 22.6906 24.6078 22.9766C24.7282 23.6741 25.3353 24.2079 26.0688 24.2079H27.1458C27.8793 24.2079 28.4864 23.6741 28.6068 22.9766C30.1807 22.6906 31.6399 22.0763 32.9077 21.2011C33.1564 21.3783 33.4518 21.4764 33.7644 21.4764C34.162 21.4764 34.5353 21.322 34.8153 21.0421L35.5763 20.2836C35.8572 20.0037 36.0122 19.6317 36.0122 19.2355C36.0122 18.9249 35.9128 18.6305 35.7359 18.3826C36.6146 17.1183 37.2305 15.6651 37.5184 14.0966C38.2175 13.9766 38.7531 13.3716 38.7531 12.6406V11.5673C38.7531 10.8363 38.2175 10.2313 37.5184 10.1114ZM27.5872 3.96149C27.9829 3.8378 28.3072 3.55739 28.4841 3.1891C29.6152 3.42579 30.6688 3.8736 31.6049 4.4851C31.4719 4.86828 31.5017 5.29144 31.6926 5.65602L29.2713 8.06946C28.7673 7.73791 28.1994 7.4961 27.5881 7.37054V3.96149H27.5872ZM21.6106 4.4851C22.5471 3.8736 23.6003 3.42579 24.7314 3.1891C24.9083 3.55739 25.2317 3.83826 25.6274 3.96149V7.37054C25.0165 7.4961 24.4487 7.73791 23.9452 8.06946L21.5238 5.65648C21.7133 5.29191 21.7441 4.86874 21.6106 4.4851ZM18.963 7.12455C19.1184 7.17849 19.2817 7.21197 19.4511 7.21197C19.6951 7.21197 19.9275 7.14733 20.1379 7.03759L22.5593 9.45057C22.2266 9.95232 21.9839 10.5187 21.8579 11.127H18.4371C18.313 10.7326 18.0316 10.4104 17.662 10.2341C17.8991 9.10692 18.3484 8.05737 18.963 7.12455ZM20.1333 17.1745C19.7735 16.9955 19.3484 16.9667 18.9676 17.0918C18.3508 16.1561 17.8995 15.1038 17.6616 13.9729C18.0311 13.7971 18.313 13.4748 18.4366 13.08H21.8575C21.9835 13.6892 22.2261 14.2547 22.5588 14.7574L20.1333 17.1745ZM25.6274 20.246C25.2317 20.3697 24.9083 20.6501 24.7314 21.0179C23.5999 20.7817 22.5467 20.3339 21.6106 19.7219C21.7436 19.3396 21.7137 18.9165 21.5229 18.551L23.9447 16.138C24.4482 16.4696 25.0165 16.7109 25.6269 16.8374V20.246H25.6274ZM26.6073 14.9829C25.0137 14.9829 23.7179 13.6915 23.7179 12.104C23.7179 10.5159 25.0137 9.22457 26.6073 9.22457C28.2003 9.22457 29.4962 10.5159 29.4962 12.104C29.4962 13.6915 28.2003 14.9829 26.6073 14.9829ZM31.6044 19.721C30.6683 20.3339 29.6147 20.7817 28.4836 21.0179C28.3067 20.6501 27.9824 20.3692 27.5867 20.246V16.8374C28.1985 16.7114 28.7659 16.4696 29.2699 16.138L31.6912 18.551C31.5022 18.9156 31.4723 19.3378 31.6044 19.721ZM34.2474 17.0908C33.8666 16.9662 33.4415 16.9955 33.0817 17.1745L30.6557 14.7578C30.9884 14.2551 31.2306 13.6897 31.3576 13.0805H34.7779C34.9021 13.4753 35.1834 13.7976 35.5535 13.9733C35.3146 15.1038 34.8643 16.1561 34.2474 17.0908ZM34.7779 11.1274H31.3576C31.2311 10.5187 30.9884 9.95279 30.6557 9.45103L33.0771 7.03805C33.2866 7.1478 33.519 7.21244 33.7635 7.21244C33.9329 7.21244 34.0962 7.17942 34.252 7.12501C34.8661 8.05784 35.3155 9.10739 35.5535 10.2351C35.1834 10.4104 34.9016 10.7331 34.7779 11.1274Z" fill="#E39D42"/>
</svg>
