<svg width="120" height="40" viewBox="0 0 120 40" fill="none" xmlns="http://www.w3.org/2000/svg">
<path d="M115.556 40H4.44445C2.00003 40 0 37.75 0 35V5.00002C0 2.25 1.99999 0 4.44445 0H115.556C118 0 120 2.25 120 5.00002V35C120 37.75 118 40 115.556 40" fill="black"/>
<path d="M115.556 0H4.44445C2.00003 0 0 2.25 0 5.00002V35C0 37.75 1.99999 40 4.44445 40H115.556C118 40 120 37.75 120 35V5.00002C120 2.25 118 0 115.556 0M115.556 0.799975C117.614 0.799975 119.289 2.68441 119.289 5.00002V35C119.289 37.316 117.614 39.2004 115.556 39.2004H4.44445C2.38616 39.2004 0.711118 37.316 0.711118 35V5.00002C0.711118 2.68441 2.38612 0.80002 4.44445 0.80002H115.556" fill="#A6A6A6"/>
<path d="M42.1497 10.2434C42.1497 11.0812 41.9292 11.7484 41.4875 12.2461C40.9858 12.8379 40.3319 13.134 39.5281 13.134C38.7583 13.134 38.1038 12.834 37.5656 12.2332C37.0264 11.6328 36.7573 10.8883 36.7573 10C36.7573 9.11131 37.0264 8.36725 37.5656 7.76637C38.1038 7.16603 38.7583 6.86559 39.5281 6.86559C39.9101 6.86559 40.2757 6.94963 40.6229 7.11722C40.9701 7.28521 41.2486 7.50822 41.457 7.78749L40.9882 8.3152C40.6351 7.84061 40.149 7.60349 39.5281 7.60349C38.9667 7.60349 38.4813 7.82542 38.0716 8.26954C37.6618 8.71411 37.457 9.29063 37.457 10C37.457 10.7094 37.6618 11.2859 38.0716 11.7305C38.4813 12.1746 38.9667 12.3965 39.5281 12.3965C40.1237 12.3965 40.6202 12.1734 41.0177 11.7266C41.2758 11.4355 41.425 11.0309 41.4649 10.5113H39.5281V9.79062H42.1125C42.1375 9.94733 42.1497 10.0977 42.1497 10.2434" fill="white"/>
<path d="M42.1497 10.2434H42.0608C42.0601 11.0621 41.8475 11.698 41.4246 12.1754L41.4237 12.1762L41.4233 12.177C40.9375 12.7484 40.3131 13.0328 39.528 13.034C38.7788 13.0328 38.1517 12.7453 37.628 12.1625C37.1056 11.5785 36.8472 10.8656 36.8462 10C36.8472 9.134 37.1056 8.42148 37.628 7.83791C38.1517 7.25469 38.7788 6.96679 39.528 6.96557C39.8986 6.96557 40.2514 7.04692 40.5878 7.20898C40.9246 7.3723 41.1906 7.58632 41.3889 7.85202L41.4569 7.78748L41.3941 7.71679L40.9253 8.24486L40.9881 8.31519L41.0566 8.2512C40.6871 7.7531 40.1684 7.50201 39.5281 7.50349C38.9459 7.50268 38.4337 7.73674 38.01 8.19772C37.5823 8.66017 37.3674 9.26914 37.3681 10C37.3674 10.7309 37.5823 11.3398 38.01 11.8023C38.4337 12.2633 38.9459 12.4973 39.528 12.4965C40.1433 12.4977 40.6677 12.2629 41.0805 11.7973C41.3562 11.4863 41.5125 11.0555 41.5535 10.5199L41.5618 10.4113H39.617V9.89061H42.1125V9.79061L42.025 9.80818C42.0493 9.95982 42.0608 10.1039 42.0608 10.2434H42.2386C42.2386 10.0914 42.226 9.93519 42.2 9.77272L42.1868 9.69061H39.4392V10.6113H41.4649V10.5113L41.3764 10.5027C41.3372 11.0059 41.1948 11.3848 40.9548 11.6559C40.5729 12.084 40.1042 12.2953 39.5281 12.2965C38.9875 12.2957 38.5288 12.0863 38.1333 11.6586C37.7417 11.2324 37.5469 10.6883 37.5459 10C37.5469 9.3117 37.7417 8.76759 38.1333 8.3414C38.5288 7.91368 38.9875 7.70429 39.5281 7.70348C40.1292 7.7051 40.583 7.92851 40.9202 8.37969L40.9827 8.46328L41.5198 7.85822L41.5775 7.79341L41.525 7.72339C41.3066 7.4305 41.0156 7.19802 40.658 7.02544C40.2997 6.85232 39.9215 6.76558 39.5281 6.76558C38.7379 6.76482 38.0559 7.0773 37.5028 7.69571C36.9476 8.3129 36.6677 9.0887 36.6685 10C36.6677 10.9109 36.9476 11.6871 37.5031 12.3047C38.0559 12.9227 38.7379 13.2348 39.5281 13.234C40.351 13.2348 41.0337 12.9273 41.5518 12.3152L41.4875 12.2461L41.5503 12.3168C42.0108 11.7992 42.2392 11.1 42.2386 10.2434H42.1497M46.2469 7.7371H43.818V9.63951H46.0084V10.3605H43.818V12.2629H46.2469V13H43.1333V7H46.2469V7.7371" fill="white"/>
<path d="M46.2469 7.73711V7.63711H43.7292V9.73952H45.9195V10.2602L43.7292 10.2605V12.3629H46.158V12.9H43.2223V7.1H46.158V7.73711H46.2469V7.63711V7.73711H46.3358V6.90001H43.0445V13.1H46.3358V12.1629H43.9069V10.4605H46.0973V9.53952H43.9069V7.8371H46.3358V7.73711H46.2469M49.1368 13H48.4511V7.73706H46.9614V6.99996H50.6264V7.73706H49.1368V13" fill="white"/>
<path d="M49.1368 13V12.9H48.5399V7.63711H47.0503V7.10005H50.5375V7.63711H49.0479V13H49.1368V12.9V13H49.2257V7.8371H50.7153V6.90001H46.8726V7.83706H48.3621V13.0999H49.2257V13H49.1368M53.2781 13V6.99996H53.9632V13H53.2781" fill="white"/>
<path d="M53.2782 13H53.3671V7.1H53.8743V12.9H53.2782V13H53.3671H53.2782V13.1H54.0521V6.90001H53.1893V13.1H53.2782V13M57.0031 13H56.3174V7.73706H54.8278V6.99996H58.4928V7.73706H57.0031V13" fill="white"/>
<path d="M57.0031 13V12.9H56.4062V7.63711H54.9167V7.10005H58.4038V7.63711H56.9142V13H57.0031V12.9V13H57.092V7.8371H58.5816V6.90001H54.739V7.83706H56.2285V13.1H57.092V13H57.0031M62.0261 11.7223C62.4208 12.1719 62.9038 12.3965 63.475 12.3965C64.0462 12.3965 64.5295 12.1719 64.9236 11.7223C65.3188 11.2727 65.5167 10.698 65.5167 10C65.5167 9.30205 65.3188 8.72732 64.9236 8.27772C64.5295 7.82812 64.0462 7.60349 63.475 7.60349C62.9038 7.60349 62.4208 7.82812 62.0261 8.27772C61.6319 8.72732 61.4341 9.302 61.4341 10C61.4341 10.698 61.6319 11.2727 62.0261 11.7223ZM65.4306 12.2246C64.9062 12.8312 64.2542 13.134 63.475 13.134C62.6951 13.134 62.0434 12.8312 61.5202 12.2246C60.9955 11.6187 60.7344 10.877 60.7344 10C60.7344 9.123 60.9955 8.38118 61.5202 7.7754C62.0434 7.16868 62.6951 6.86559 63.475 6.86559C64.2501 6.86559 64.9004 7.17029 65.4271 7.77931C65.9532 8.38828 66.2164 9.12848 66.2164 10C66.2164 10.877 65.9538 11.6187 65.4306 12.2246Z" fill="white"/>
<path d="M62.026 11.7223L61.9628 11.7926C62.3722 12.2602 62.883 12.4977 63.475 12.4965C64.0666 12.4977 64.5781 12.2602 64.9868 11.7926C65.3989 11.3246 65.6062 10.7191 65.6055 10C65.6061 9.28092 65.3989 8.67541 64.9868 8.20738C64.5781 7.7398 64.0666 7.50232 63.475 7.50349C62.883 7.50232 62.3722 7.7398 61.9628 8.20738C61.5517 8.67541 61.344 9.28092 61.3451 10C61.344 10.7191 61.5517 11.3246 61.9628 11.7926L62.026 11.7223L62.0892 11.652C61.7122 11.2203 61.5236 10.6773 61.5229 10C61.5236 9.32272 61.7122 8.77972 62.0892 8.348C62.4697 7.91642 62.9242 7.7047 63.475 7.70353C64.0253 7.7047 64.4808 7.91642 64.8604 8.348C65.2382 8.77972 65.4267 9.32272 65.4274 10C65.4267 10.6773 65.2382 11.2203 64.8604 11.652C64.4808 12.0836 64.0253 12.2953 63.475 12.2965C62.9242 12.2953 62.4697 12.0836 62.0892 11.652L62.026 11.7223ZM65.4305 12.2246L65.367 12.1551C64.8573 12.7426 64.234 13.0328 63.475 13.034C62.7156 13.0328 62.0923 12.7426 61.5836 12.1551L61.5812 12.152L61.5836 12.1551C61.075 11.5656 60.824 10.8547 60.8233 10C60.824 9.14528 61.075 8.43438 61.5836 7.84492C62.0923 7.25739 62.7156 6.96679 63.475 6.96562C64.2291 6.96679 64.851 7.2586 65.3635 7.84919C65.8739 8.44139 66.1264 9.15117 66.1274 10C66.1264 10.8547 65.8746 11.5656 65.367 12.1551L65.4305 12.2246L65.4945 12.2941C66.0333 11.6715 66.3058 10.8992 66.3052 10C66.3059 9.10591 66.0322 8.3352 65.4909 7.70982C64.9493 7.08198 64.2708 6.7645 63.475 6.76558C62.675 6.7645 61.9944 7.08049 61.4562 7.70591V7.70546C60.9163 8.3285 60.6448 9.10079 60.6455 10C60.6448 10.8992 60.9163 11.6715 61.4562 12.2945L61.4586 12.2973L61.4562 12.2941C61.9944 12.9195 62.675 13.2348 63.475 13.234C64.2746 13.2348 64.9552 12.9195 65.4945 12.2941L65.4305 12.2246V12.2246ZM67.1781 13V6.99996H68.0121L70.6041 11.6675H70.6337L70.6041 10.5113V6.99996H71.2899V12.9999H70.5746L67.8628 8.10617H67.8333L67.8628 9.26285V12.9999H67.1781" fill="white"/>
<path d="M67.1781 13H67.267V7.1H67.9629L70.5549 11.7676H70.725L70.6931 10.5098V7.10005H71.2011V12.9H70.624L67.9122 8.00622H67.7421L67.774 9.26452V12.9H67.1782V13H67.267H67.1782V13.1H67.9518V9.26133L67.9223 8.10352L67.8334 8.10622V8.20622H67.8629V8.10622L67.7875 8.15939L70.5254 13.1H71.3789V6.90001H70.5153V10.5125L70.5448 11.6703L70.6337 11.6676V11.5676H70.6042V11.6676L70.6796 11.6145L68.0614 6.90001H67.0893V13.1H67.1782V13M95.0543 30H96.7129V17.4988H95.0542L95.0543 30ZM109.994 22.0021L108.092 27.4219H108.036L106.062 22.002H104.276L107.235 29.5773L105.548 33.791H107.278L111.838 22.002L109.994 22.0021ZM100.588 28.5801C100.044 28.5801 99.2863 28.2746 99.2863 27.5184C99.2863 26.5535 100.23 26.1836 101.044 26.1836C101.774 26.1836 102.116 26.3605 102.56 26.602C102.431 27.7598 101.545 28.5801 100.588 28.5801V28.5801ZM100.788 21.7285C99.5867 21.7285 98.3432 22.3238 97.8285 23.6426L99.3005 24.334C99.6151 23.6426 100.201 23.4172 100.816 23.4172C101.674 23.4172 102.546 23.9965 102.56 25.0258V25.1544C102.26 24.9613 101.617 24.6719 100.83 24.6719C99.2436 24.6719 97.6276 25.6527 97.6276 27.4863C97.6276 29.159 98.9289 30.2367 100.387 30.2367C101.502 30.2367 102.116 29.6738 102.503 29.0145H102.56V29.9793H104.161V25.1863C104.161 22.9672 102.689 21.7285 100.788 21.7285V21.7285ZM90.5369 23.5238H88.1778V19.2387H90.5369C91.7769 19.2387 92.4809 20.3937 92.4809 21.3812C92.4809 22.35 91.7769 23.5238 90.5369 23.5238ZM90.4943 17.4988H86.52V30H88.1778V25.2637H90.4943C92.3325 25.2637 94.1396 23.7664 94.1396 21.3812C94.1396 18.9961 92.3325 17.4988 90.4943 17.4988V17.4988ZM68.8222 28.5824C67.6764 28.5824 66.717 27.5031 66.717 26.0207C66.717 24.5227 67.6764 23.427 68.8222 23.427C69.9535 23.427 70.8414 24.5227 70.8414 26.0207C70.8414 27.5031 69.9535 28.5824 68.8223 28.5824H68.8222ZM70.7268 22.702H70.6695C70.2973 22.2027 69.5809 21.7516 68.6789 21.7516C66.7886 21.7516 65.0559 23.6203 65.0559 26.0207C65.0559 28.4051 66.7885 30.2578 68.6789 30.2578C69.5809 30.2578 70.2973 29.8066 70.6695 29.2914H70.7268V29.9035C70.7268 31.5309 69.9535 32.4008 68.7077 32.4008C67.6909 32.4008 67.0608 31.5789 66.8028 30.8863L65.3567 31.5629C65.7719 32.6906 66.8747 34.0762 68.7077 34.0762C70.6552 34.0762 72.3021 32.7871 72.3021 29.6457V22.0094H70.7268V22.702ZM73.4476 30H75.1088V17.4984H73.4476V30ZM77.5576 25.8758C77.5146 24.2324 78.6889 23.3949 79.5337 23.3949C80.1929 23.3949 80.7511 23.7652 80.9369 24.2973L77.5576 25.8758ZM82.7129 24.4582C82.3982 23.5074 81.4382 21.7516 79.4764 21.7516C77.5288 21.7516 75.9108 23.4754 75.9108 26.0047C75.9108 28.3891 77.5146 30.2578 79.6625 30.2578C81.3956 30.2578 82.3982 29.0656 82.8134 28.373L81.5245 27.4062C81.0951 28.1152 80.5076 28.5824 79.6625 28.5824C78.8177 28.5824 78.2164 28.1473 77.8295 27.2937L82.8845 24.9414L82.7129 24.4582ZM42.439 23.0566V24.8609H46.2767C46.1622 25.8758 45.8614 26.6168 45.4031 27.1324C44.8448 27.7609 43.9712 28.4535 42.4389 28.4535C40.076 28.4535 38.2288 26.3109 38.2288 23.6527C38.2288 20.9945 40.076 18.8516 42.439 18.8516C43.7135 18.8516 44.6441 19.4156 45.3316 20.1406L46.4629 18.868C45.5035 17.8367 44.2288 17.0473 42.439 17.0473C39.2024 17.0473 36.4816 20.0117 36.4816 23.6527C36.4816 27.2937 39.2024 30.2578 42.439 30.2578C44.1861 30.2578 45.5035 29.6137 46.5344 28.4051C47.5942 27.2129 47.9237 25.5375 47.9237 24.1844C47.9237 23.7652 47.8951 23.3789 47.8375 23.0566H42.439ZM52.2869 28.5824C51.141 28.5824 50.1528 27.5191 50.1528 26.0047C50.1528 24.4742 51.141 23.427 52.2869 23.427C53.4323 23.427 54.4205 24.4742 54.4205 26.0047C54.4205 27.5191 53.4323 28.5824 52.2869 28.5824ZM52.2869 21.7516C50.1958 21.7516 48.4917 23.5398 48.4917 26.0047C48.4917 28.4535 50.1958 30.2578 52.2869 30.2578C54.3774 30.2578 56.0816 28.4535 56.0816 26.0047C56.0816 23.5398 54.3774 21.7516 52.2869 21.7516ZM60.5652 28.5824C59.4199 28.5824 58.4316 27.5191 58.4316 26.0047C58.4316 24.4742 59.4199 23.427 60.5653 23.427C61.7108 23.427 62.699 24.4742 62.699 26.0047C62.699 27.5191 61.7108 28.5824 60.5653 28.5824H60.5652ZM60.5652 21.7516C58.4743 21.7516 56.7705 23.5398 56.7705 26.0047C56.7705 28.4535 58.4743 30.2578 60.5653 30.2578C62.6559 30.2578 64.3601 28.4535 64.3601 26.0047C64.3601 23.5398 62.6559 21.7516 60.5653 21.7516H60.5652Z" fill="white"/>
<path d="M9.34098 7.61131C9.04268 7.91409 8.86462 8.4191 8.86462 9.08946V8.93792V31.059V30.9133C8.86462 31.5324 9.01736 32.0105 9.276 32.3184L9.34202 32.3895V32.3898C9.55137 32.6023 9.81982 32.7152 10.1275 32.7148C10.4281 32.7148 10.7663 32.607 11.1233 32.3793L24.0257 24.132L28.4576 21.2988C29.0205 20.9391 29.3364 20.475 29.3893 20.0023V20.0004C29.3364 19.5266 29.0205 19.0629 28.4576 18.7031L24.0253 15.8703L11.1233 7.62299C10.7656 7.39491 10.4271 7.28669 10.1257 7.28669C9.81842 7.28669 9.55033 7.39918 9.34106 7.61131H9.34098Z" fill="#00C1FF"/>
<path d="M9.34206 32.3895L9.276 32.3184C9.01736 32.0105 8.86462 31.5324 8.86462 30.9133V31.059V8.94341V9.08947C8.86462 8.41911 9.04268 7.91409 9.34098 7.61131L20.3542 20.0008L9.34206 32.3895Z" fill="url(#paint0_linear_9_80)"/>
<path d="M24.0257 24.132L20.3541 20.0008L24.0254 15.8703L28.4576 18.7031C29.0204 19.0629 29.3364 19.5266 29.3892 20.0004V20.0023C29.3364 20.475 29.0204 20.9391 28.4576 21.2988L24.0257 24.132" fill="url(#paint1_linear_9_80)"/>
<path d="M10.1275 32.7148C9.81986 32.7151 9.55141 32.6023 9.3421 32.3898V32.3894L20.3542 20.0008L24.0257 24.132L11.1233 32.3793C10.7663 32.607 10.4281 32.7148 10.1275 32.7148Z" fill="url(#paint2_linear_9_80)"/>
<path d="M20.3542 20.0009L9.34094 7.61136C9.55029 7.39923 9.81838 7.28674 10.1256 7.28674C10.4271 7.28674 10.7656 7.39491 11.1233 7.62304L24.0253 15.8703L20.3541 20.0009" fill="url(#paint3_linear_9_80)"/>
<path d="M10.1278 32.8613C9.8202 32.8613 9.55139 32.7484 9.34204 32.5359L9.34168 32.5363C9.34082 32.5353 9.3399 32.5344 9.33892 32.5336L9.28166 32.4707C9.27986 32.4687 9.27818 32.4664 9.27606 32.4641L9.34208 32.3898C9.55143 32.6023 9.81984 32.7152 10.1275 32.7148C10.4281 32.7148 10.7664 32.607 11.1233 32.3793L24.0257 24.132L24.1084 24.225L24.0247 24.2785L11.1233 32.5254C10.798 32.7328 10.4885 32.841 10.2091 32.859C10.182 32.8605 10.1549 32.8612 10.1278 32.8613" fill="url(#paint4_linear_9_80)"/>
<path d="M9.276 32.4641C9.01736 32.1563 8.86462 31.6785 8.86462 31.059V30.9133C8.86462 31.5324 9.01736 32.0105 9.276 32.3184L9.34202 32.3895L9.276 32.4641" fill="url(#paint5_linear_9_80)"/>
<path d="M24.1084 24.225L24.0257 24.132L28.4576 21.2988C29.0205 20.9391 29.3364 20.475 29.3893 20.0023C29.3893 20.1758 29.3548 20.3492 29.2865 20.518C29.1486 20.8582 28.8723 21.1797 28.4576 21.4449L24.1084 24.225" fill="url(#paint6_linear_9_80)"/>
<path d="M29.3892 20.0005C29.3364 19.5266 29.0204 19.063 28.4576 18.7031L24.0253 15.8703L24.1079 15.7773H24.1083L28.4576 18.5574C29.0781 18.9543 29.3888 19.4773 29.3892 20.0005" fill="url(#paint7_linear_9_80)"/>
<path d="M8.86462 9.08946V8.93666C8.86462 8.88156 8.86594 8.82767 8.86847 8.77536V8.77298C8.86847 8.77226 8.86847 8.77149 8.86871 8.77069V8.7648C8.89547 8.23156 9.04268 7.81561 9.276 7.53787L9.34098 7.61126C9.04268 7.91408 8.86462 8.4191 8.86462 9.08946Z" fill="url(#paint8_linear_9_80)"/>
<path d="M24.0253 15.8703L11.1233 7.62295C10.7656 7.39487 10.4271 7.28669 10.1257 7.28669C9.81838 7.28669 9.55029 7.39918 9.34098 7.61131L9.276 7.53787C9.29629 7.5137 9.31738 7.49039 9.33922 7.46799C9.3399 7.46718 9.34098 7.46637 9.34166 7.46561C9.54933 7.2551 9.81458 7.14261 10.1191 7.14058H10.1257C10.4271 7.14058 10.7656 7.2488 11.1233 7.47698L24.1083 15.777L24.108 15.7773L24.0253 15.8703" fill="url(#paint9_linear_9_80)"/>
<defs>
<linearGradient id="paint0_linear_9_80" x1="15.9027" y1="8.70967" x2="5.31226" y2="18.1538" gradientUnits="userSpaceOnUse">
<stop stop-color="#00A0FF"/>
<stop offset="0.00657" stop-color="#00A1FF"/>
<stop offset="0.2601" stop-color="#00BEFF"/>
<stop offset="0.5122" stop-color="#00D2FF"/>
<stop offset="0.7604" stop-color="#00DFFF"/>
<stop offset="1" stop-color="#00E3FF"/>
</linearGradient>
<linearGradient id="paint1_linear_9_80" x1="30.075" y1="19.9294" x2="8.56655" y2="19.9294" gradientUnits="userSpaceOnUse">
<stop stop-color="#FFE000"/>
<stop offset="0.4087" stop-color="#FFBD00"/>
<stop offset="0.7754" stop-color="#FFA500"/>
<stop offset="1" stop-color="#FF9C00"/>
</linearGradient>
<linearGradient id="paint2_linear_9_80" x1="22.0765" y1="23.9285" x2="4.14537" y2="39.802" gradientUnits="userSpaceOnUse">
<stop stop-color="#FF3A44"/>
<stop offset="1" stop-color="#C31162"/>
</linearGradient>
<linearGradient id="paint3_linear_9_80" x1="6.50253" y1="5.77455" x2="14.4954" y2="12.8611" gradientUnits="userSpaceOnUse">
<stop stop-color="#32A071"/>
<stop offset="0.0685" stop-color="#2DA771"/>
<stop offset="0.4762" stop-color="#15CF74"/>
<stop offset="0.8009" stop-color="#06E775"/>
<stop offset="1" stop-color="#00F076"/>
</linearGradient>
<linearGradient id="paint4_linear_9_80" x1="22.0685" y1="26.7942" x2="7.69615" y2="39.611" gradientUnits="userSpaceOnUse">
<stop stop-color="#CC2E36"/>
<stop offset="1" stop-color="#9C0E4E"/>
</linearGradient>
<linearGradient id="paint5_linear_9_80" x1="10.3317" y1="8.70964" x2="1.00169" y2="17.0299" gradientUnits="userSpaceOnUse">
<stop stop-color="#008DE0"/>
<stop offset="0.00657" stop-color="#008DE0"/>
<stop offset="0.2601" stop-color="#00A7E0"/>
<stop offset="0.5122" stop-color="#00B8E0"/>
<stop offset="0.7604" stop-color="#00C4E0"/>
<stop offset="1" stop-color="#00C7E0"/>
</linearGradient>
<linearGradient id="paint6_linear_9_80" x1="30.075" y1="20.0014" x2="8.56656" y2="20.0014" gradientUnits="userSpaceOnUse">
<stop stop-color="#E0C500"/>
<stop offset="0.4087" stop-color="#E0A600"/>
<stop offset="0.7754" stop-color="#E09100"/>
<stop offset="1" stop-color="#E08900"/>
</linearGradient>
<linearGradient id="paint7_linear_9_80" x1="30.075" y1="20.0014" x2="8.56655" y2="20.0014" gradientUnits="userSpaceOnUse">
<stop stop-color="#FFE840"/>
<stop offset="0.4087" stop-color="#FFCE40"/>
<stop offset="0.7754" stop-color="#FFBC40"/>
<stop offset="1" stop-color="#FFB540"/>
</linearGradient>
<linearGradient id="paint8_linear_9_80" x1="10.3227" y1="8.72664" x2="1.38197" y2="16.3542" gradientUnits="userSpaceOnUse">
<stop stop-color="#40B8FF"/>
<stop offset="0.00657" stop-color="#40B9FF"/>
<stop offset="0.2601" stop-color="#40CEFF"/>
<stop offset="0.5122" stop-color="#40DDFF"/>
<stop offset="0.7604" stop-color="#40E7FF"/>
<stop offset="1" stop-color="#40EAFF"/>
</linearGradient>
<linearGradient id="paint9_linear_9_80" x1="6.48648" y1="8.39465" x2="12.9044" y2="14.118" gradientUnits="userSpaceOnUse">
<stop stop-color="#65B895"/>
<stop offset="0.0685" stop-color="#62BD95"/>
<stop offset="0.4762" stop-color="#50DB97"/>
<stop offset="0.8009" stop-color="#44ED98"/>
<stop offset="1" stop-color="#40F498"/>
</linearGradient>
</defs>
</svg>
