<svg xmlns="http://www.w3.org/2000/svg" width="134" height="40" viewBox="0 0 134 40" fill="none">
    <g clip-path="url(#clip0_21_41)">
        <path d="M129.037 40H4.96296C2.23333 40 0 37.75 0 35V5C0 2.25 2.23333 0 4.96296 0H129.037C131.767 0 134 2.25 134 5V35C134 37.75 131.767 40 129.037 40Z" fill="#020202"/>
        <path d="M129.037 0H4.96296C2.23333 0 0 2.25 0 5V35C0 37.75 2.23333 40 4.96296 40H129.037C131.767 40 134 37.75 134 35V5C134 2.25 131.767 0 129.037 0ZM129.037 0.800781C131.336 0.800781 133.205 2.68359 133.205 5V35C133.205 37.3164 131.336 39.1992 129.037 39.1992H4.96296C2.66372 39.1992 0.794849 37.3164 0.794849 35V5C0.794849 2.68359 2.66372 0.800781 4.96296 0.800781H129.037Z" fill="#A6A6A6"/>
        <path d="M47.0182 9.46875H43.9319V10.5156H46.0877C46.0412 10.9375 45.8706 11.2969 45.4828 11.625C45.0796 11.9688 44.7229 12.0781 44.1335 12.0781C43.4821 12.0781 43.0789 11.9062 42.6291 11.4531C42.1793 10.9844 42.0243 10.5312 42.0243 9.84375C42.0243 9.15625 42.1793 8.70312 42.6291 8.25C43.0789 7.79688 43.4821 7.60938 44.1335 7.60938C44.4747 7.60938 44.7849 7.67188 45.0796 7.79688C45.3743 7.92188 45.4518 8.04688 45.762 8.42188L46.5685 7.60938C46.2118 7.21875 45.762 6.9375 45.3743 6.78125C44.9865 6.625 44.5833 6.54688 44.1335 6.54688C43.265 6.54688 42.3965 6.90625 41.8071 7.5C41.2023 8.10938 40.8456 8.96875 40.8456 9.84375C40.8456 10.7188 41.2023 11.5781 41.8071 12.1875C42.3965 12.7969 43.265 13.1406 44.1335 13.1406C45.0486 13.1406 45.9016 12.7969 46.4599 12.2031C46.9407 11.7031 47.2509 10.9219 47.2509 10.0781C47.2509 9.9375 47.2354 9.79688 47.1888 9.46875H47.0182Z" fill="white"/>
        <path d="M47.9691 6.84375V13H51.831V11.9375H49.1168V10.3594H51.5673V9.32813H49.1168V7.73438H51.831V6.6875H47.9691V6.84375Z" fill="white"/>
        <path d="M56.7222 7.57813V6.6875H52.24V7.73438H53.8995V13H55.0627V7.73438H56.7222V7.57813Z" fill="white"/>
        <path d="M60.2593 6.6875H59.2977V13H60.4454V6.6875H60.2593Z" fill="white"/>
        <path d="M65.5063 7.57813V6.6875H61.0241V7.73438H62.6836V13H63.8468V7.73438H65.5063V7.57813Z" fill="white"/>
        <path d="M73.1882 7.51562C72.5988 6.90625 71.7458 6.54688 70.8773 6.54688C70.0088 6.54688 69.1558 6.90625 68.5664 7.5C67.9616 8.09375 67.6204 8.95312 67.6204 9.84375C67.6204 10.7344 67.9616 11.5938 68.5664 12.1875C69.1558 12.7969 70.0088 13.1406 70.8773 13.1406C71.7303 13.1406 72.5988 12.7969 73.1882 12.1875C73.7775 11.5938 74.1343 10.7344 74.1343 9.84375C74.1343 8.96875 73.7775 8.10938 73.1882 7.51562ZM69.3884 8.25C69.8227 7.79688 70.2259 7.60938 70.8773 7.60938C71.5287 7.60938 71.9319 7.79688 72.3507 8.25C72.8005 8.6875 72.9555 9.14062 72.9555 9.84375C72.9555 10.5312 72.8005 11 72.3507 11.4531C71.9319 11.9062 71.5287 12.0781 70.8773 12.0781C70.2259 12.0781 69.8227 11.9062 69.3884 11.4531C68.9542 11 68.7991 10.5312 68.7991 9.84375C68.7991 9.14062 68.9542 8.6875 69.3884 8.25Z" fill="white"/>
        <path d="M75.9672 9.10938L75.9362 8.10938H75.6726L78.6969 13H79.798V6.6875H78.6348V10.3594L78.6658 11.3438H78.945L76.0448 6.6875H74.8195V13H75.9672V9.10938Z" fill="white"/>
        <path d="M47.0435 9.78125H44.1471V10.5039H46.3184C46.2602 11.0937 46.0276 11.5547 45.636 11.8906C45.2444 12.2266 44.7403 12.3945 44.1471 12.3945C43.4996 12.3945 42.949 12.168 42.4993 11.7148C42.0534 11.25 41.8324 10.6797 41.8324 9.99219C41.8324 9.30078 42.0534 8.73047 42.4993 8.26562C42.949 7.8125 43.4996 7.58594 44.1471 7.58594C44.4844 7.58594 44.8024 7.64453 45.0932 7.77344C45.384 7.89844 45.6166 8.07422 45.8027 8.30078L46.3533 7.74609C46.1013 7.46094 45.7872 7.24219 45.3917 7.08203C45.0001 6.92187 44.5891 6.84766 44.1471 6.84766C43.2825 6.84766 42.5458 7.14844 41.9487 7.75391C41.3477 8.35937 41.0453 9.10937 41.0453 9.99219C41.0453 10.875 41.3477 11.6211 41.9487 12.2266C42.5458 12.832 43.2825 13.1328 44.1471 13.1328C45.0583 13.1328 45.7872 12.8398 46.3455 12.2422C46.8341 11.7461 47.0861 11.0742 47.0861 10.2344C47.0861 10.0937 47.0706 9.94141 47.0435 9.78125ZM48.1679 6.98047V13H51.6536V12.2617H48.9356V10.3516H51.3861V9.62891H48.9356V7.72266H51.6536V6.98047H48.1679ZM56.5468 7.72266V6.98047H52.4407V7.72266H54.1079V13H54.8756V7.72266H56.5468ZM60.2612 6.98047H59.4935V13H60.2612V6.98047ZM65.3289 7.72266V6.98047H61.2228V7.72266H62.8939V13H63.6616V7.72266H65.3289ZM73.0758 7.76562C72.4825 7.14844 71.7575 6.84766 70.8928 6.84766C70.0243 6.84766 69.2954 7.14844 68.706 7.75391C68.1128 8.35156 67.822 9.10156 67.822 9.99219C67.822 10.8828 68.1128 11.6289 68.706 12.2266C69.2954 12.832 70.0243 13.1328 70.8928 13.1328C71.7497 13.1328 72.4825 12.832 73.0758 12.2266C73.669 11.6289 73.9598 10.8828 73.9598 9.99219C73.9598 9.10937 73.669 8.35937 73.0758 7.76562ZM69.2566 8.26562C69.6986 7.8125 70.2414 7.58594 70.8928 7.58594C71.5403 7.58594 72.0832 7.8125 72.5174 8.26562C72.9594 8.71094 73.1766 9.29297 73.1766 9.99219C73.1766 10.6875 72.9594 11.2695 72.5174 11.7148C72.0832 12.168 71.5403 12.3945 70.8928 12.3945C70.2414 12.3945 69.6986 12.168 69.2566 11.7148C68.8223 11.2578 68.6052 10.6875 68.6052 9.99219C68.6052 9.29297 68.8223 8.72266 69.2566 8.26562ZM75.786 9.25L75.7511 8.08984H75.786L78.8219 13H79.6245V6.98047H78.8568V10.5039L78.8879 11.6641H78.8568L75.9527 6.98047H75.0183V13H75.786V9.25Z" stroke="white" stroke-width="0.266667" stroke-miterlimit="10"/>
        <path d="M106.145 30H107.995V17.5H106.145V30ZM122.826 22.0039L120.705 27.4219H120.639L118.436 22.0039H116.44L119.747 29.5781L117.863 33.793H119.794L124.884 22.0039H122.826ZM112.322 28.582C111.717 28.582 110.868 28.2734 110.868 27.5195C110.868 26.5547 111.923 26.1836 112.834 26.1836C113.648 26.1836 114.032 26.3594 114.524 26.6016C114.381 27.7617 113.392 28.582 112.322 28.582ZM112.547 21.7266C111.205 21.7266 109.817 22.3242 109.243 23.6445L110.887 24.3359C111.236 23.6445 111.892 23.418 112.578 23.418C113.536 23.418 114.509 23.9961 114.524 25.0273V25.1562C114.191 24.9609 113.47 24.6719 112.593 24.6719C110.821 24.6719 109.018 25.6523 109.018 27.4844C109.018 29.1602 110.472 30.2383 112.097 30.2383C113.342 30.2383 114.032 29.6719 114.462 29.0156H114.524V29.9805H116.316V25.1875C116.316 22.9688 114.668 21.7266 112.547 21.7266ZM101.101 23.5234H98.4644V19.2383H101.101C102.485 19.2383 103.268 20.3945 103.268 21.3828C103.268 22.3516 102.485 23.5234 101.101 23.5234ZM101.051 17.5H96.6149V30H98.4644V25.2656H101.051C103.106 25.2656 105.122 23.7656 105.122 21.3828C105.122 18.9961 103.106 17.5 101.051 17.5ZM76.8523 28.582C75.5727 28.582 74.4987 27.5039 74.4987 26.0195C74.4987 24.5234 75.5727 23.4258 76.8523 23.4258C78.1163 23.4258 79.105 24.5234 79.105 26.0195C79.105 27.5039 78.1163 28.582 76.8523 28.582ZM78.977 22.7031H78.915C78.5001 22.2031 77.6975 21.75 76.6933 21.75C74.5802 21.75 72.6454 23.6211 72.6454 26.0195C72.6454 28.4063 74.5802 30.2578 76.6933 30.2578C77.6975 30.2578 78.5001 29.8047 78.915 29.293H78.977V29.9023C78.977 31.5312 78.1163 32.3984 76.7243 32.3984C75.5883 32.3984 74.8865 31.5781 74.5957 30.8867L72.9827 31.5625C73.4441 32.6914 74.6771 34.0742 76.7243 34.0742C78.8995 34.0742 80.7373 32.7891 80.7373 29.6445V22.0078H78.977V22.7031ZM82.0168 30H83.8702V17.5H82.0168V30ZM86.6076 25.875C86.5572 24.2305 87.8716 23.3945 88.8138 23.3945C89.5505 23.3945 90.1708 23.7656 90.3802 24.2969L86.6076 25.875ZM92.3615 24.457C92.0126 23.5078 90.9385 21.75 88.7479 21.75C86.5727 21.75 84.7659 23.4766 84.7659 26.0039C84.7659 28.3906 86.5572 30.2578 88.9572 30.2578C90.892 30.2578 92.0126 29.0664 92.474 28.3711L91.0355 27.4062C90.5547 28.1133 89.8994 28.582 88.9572 28.582C88.0112 28.582 87.3404 28.1484 86.91 27.293L92.5554 24.9414L92.3615 24.457ZM47.3885 23.0547V24.8594H51.6769C51.5489 25.875 51.2116 26.6172 50.6998 27.1328C50.0755 27.7617 49.1023 28.4531 47.3885 28.4531C44.752 28.4531 42.6892 26.3125 42.6892 23.6523C42.6892 20.9961 44.752 18.8516 47.3885 18.8516C48.8115 18.8516 49.8506 19.4141 50.6184 20.1406L51.8824 18.8672C50.8122 17.8359 49.3892 17.0469 47.3885 17.0469C43.7749 17.0469 40.739 20.0117 40.739 23.6523C40.739 27.293 43.7749 30.2578 47.3885 30.2578C49.3427 30.2578 50.8122 29.6133 51.9638 28.4062C53.1464 27.2148 53.5147 25.5391 53.5147 24.1836C53.5147 23.7656 53.4837 23.3789 53.4178 23.0547H47.3885ZM58.3885 28.582C57.109 28.582 56.0039 27.5195 56.0039 26.0039C56.0039 24.4727 57.109 23.4258 58.3885 23.4258C59.6641 23.4258 60.7692 24.4727 60.7692 26.0039C60.7692 27.5195 59.6641 28.582 58.3885 28.582ZM58.3885 21.75C56.0505 21.75 54.1506 23.5391 54.1506 26.0039C54.1506 28.4531 56.0505 30.2578 58.3885 30.2578C60.7226 30.2578 62.6264 28.4531 62.6264 26.0039C62.6264 23.5391 60.7226 21.75 58.3885 21.75ZM67.632 28.582C66.3525 28.582 65.2475 27.5195 65.2475 26.0039C65.2475 24.4727 66.3525 23.4258 67.632 23.4258C68.9115 23.4258 70.0127 24.4727 70.0127 26.0039C70.0127 27.5195 68.9115 28.582 67.632 28.582ZM67.632 21.75C65.2979 21.75 63.3941 23.5391 63.3941 26.0039C63.3941 28.4531 65.2979 30.2578 67.632 30.2578C69.9662 30.2578 71.8699 28.4531 71.8699 26.0039C71.8699 23.5391 69.9662 21.75 67.632 21.75Z" fill="white"/>
        <path d="M20.5653 19.4258L9.99573 30.7227C9.99573 30.7266 9.99573 30.7305 9.9996 30.7305C10.3214 31.957 11.4342 32.8633 12.7525 32.8633C13.2837 32.8633 13.7761 32.7188 14.2026 32.4648L14.2375 32.4453L26.1331 25.5313L20.5653 19.4258Z" fill="#EB4335"/>
        <path d="M31.255 17.5L31.2434 17.4922L26.1098 14.4922L20.3249 19.6797L26.1292 25.5273L31.2395 22.5586C32.1352 22.0742 32.7401 21.1211 32.7401 20.0234C32.7401 18.9336 32.1429 17.9883 31.255 17.5Z" fill="#FABC14"/>
        <path d="M9.99571 9.27734C9.93367 9.51172 9.89877 9.76172 9.89877 10.0156V29.9844C9.89877 30.2422 9.93367 30.4883 9.99571 30.7227L20.9259 19.7148L9.99571 9.27734Z" fill="#547DBF"/>
        <path d="M20.6428 20L26.1098 14.4922L14.2298 7.55078C13.7994 7.28906 13.2953 7.14062 12.7525 7.14062C11.4342 7.14062 10.3214 8.04688 9.99573 9.27344C9.99573 9.27734 9.99573 9.27734 9.99573 9.27734L20.6428 20Z" fill="#31A852"/>
    </g>
    <defs>
        <clipPath id="clip0_21_41">
            <rect width="134" height="40" fill="white"/>
        </clipPath>
    </defs>
</svg>
