<svg width="120" height="40" viewBox="0 0 120 40" fill="none" xmlns="http://www.w3.org/2000/svg">
<g clip-path="url(#clip0_9_43)">
<path d="M110.444 3.00293e-07H9.56145C9.19372 3.00293e-07 8.8304 3.00352e-07 8.46364 0.0020003C8.15663 0.0040003 7.85207 0.0098103 7.54211 0.0147003C6.86874 0.0226021 6.19695 0.0816766 5.53259 0.19141C4.86915 0.303533 4.2265 0.514916 3.62637 0.81841C3.02697 1.12447 2.47929 1.52217 2.00318 1.99707C1.52457 2.47064 1.12561 3.01802 0.82165 3.61816C0.516847 4.21711 0.305496 4.85894 0.194896 5.52148C0.083244 6.18319 0.0231632 6.85252 0.0151925 7.52348C0.00588648 7.83008 0.00490373 8.1377 0 8.44434V31.5586C0.00490373 31.8691 0.00588648 32.1699 0.0151925 32.4805C0.0231657 33.1514 0.0832464 33.8207 0.194896 34.4824C0.30519 35.1453 0.516554 35.7875 0.82165 36.3867C1.12548 36.9849 1.52449 37.5301 2.00318 38.001C2.47748 38.478 3.02552 38.876 3.62637 39.1797C4.2265 39.484 4.86908 39.6966 5.53259 39.8105C6.19707 39.9194 6.86879 39.9785 7.54211 39.9873C7.85207 39.9941 8.15663 39.998 8.46364 39.998C8.83039 40 9.19374 40 9.56145 40H110.444C110.804 40 111.171 40 111.531 39.998C111.837 39.998 112.15 39.9941 112.455 39.9873C113.128 39.9789 113.798 39.9198 114.461 39.8105C115.127 39.6958 115.772 39.4833 116.375 39.1797C116.975 38.8758 117.522 38.4778 117.996 38.001C118.474 37.5282 118.874 36.9835 119.181 36.3867C119.484 35.7871 119.693 35.1449 119.802 34.4824C119.914 33.8206 119.976 33.1515 119.988 32.4805C119.992 32.1699 119.992 31.8691 119.992 31.5586C120 31.1953 120 30.834 120 30.4648V9.53613C120 9.16992 120 8.80664 119.992 8.44434C119.992 8.1377 119.992 7.83008 119.988 7.52344C119.976 6.85242 119.914 6.18324 119.802 5.52144C119.693 4.85928 119.484 4.2175 119.181 3.61812C118.562 2.4152 117.581 1.43603 116.375 0.81832C115.772 0.515568 115.127 0.304241 114.461 0.19132C113.798 0.0811031 113.128 0.0220081 112.455 0.0145603C112.15 0.0096803 111.837 0.0038203 111.531 0.0018703C111.171 -0.0001297 110.804 -0.0001297 110.444 -0.0001297V3.00293e-07Z" fill="#A6A6A6"/>
<path d="M8.46856 39.125C8.16303 39.125 7.86487 39.1211 7.56174 39.1143C6.93376 39.1061 6.30725 39.0516 5.68735 38.9512C5.10932 38.8519 4.54937 38.6673 4.02596 38.4033C3.50735 38.1415 3.03433 37.7983 2.62504 37.3867C2.20981 36.98 1.86412 36.5082 1.60166 35.9902C1.33631 35.4688 1.15267 34.9099 1.05714 34.333C0.953972 33.7131 0.898156 33.0863 0.890169 32.458C0.883812 32.2471 0.875488 31.5449 0.875488 31.5449V8.44434C0.875488 8.44434 0.884353 7.75293 0.89022 7.5498C0.897867 6.92248 0.953358 6.29665 1.05621 5.67773C1.15192 5.09925 1.3357 4.53875 1.6012 4.01563C1.8627 3.49794 2.20647 3.02586 2.61919 2.61768C3.03145 2.20562 3.50597 1.8606 4.02547 1.59521C4.54767 1.33209 5.10657 1.14873 5.68343 1.05127C6.30537 0.949836 6.93405 0.894996 7.5642 0.88721L8.46906 0.875H111.526L112.442 0.8877C113.066 0.895099 113.689 0.94945 114.305 1.05029C114.888 1.14898 115.453 1.33362 115.981 1.59814C117.022 2.13299 117.869 2.97916 118.403 4.01807C118.664 4.53758 118.845 5.09351 118.939 5.66699C119.044 6.29099 119.102 6.92174 119.114 7.5542C119.117 7.8374 119.117 8.1416 119.117 8.44434C119.125 8.81934 119.125 9.17627 119.125 9.53613V30.4648C119.125 30.8281 119.125 31.1826 119.117 31.54C119.117 31.8652 119.117 32.1631 119.113 32.4697C119.101 33.0909 119.044 33.7104 118.941 34.3232C118.848 34.9043 118.665 35.4675 118.4 35.9932C118.136 36.5056 117.792 36.9733 117.381 37.3789C116.972 37.7927 116.498 38.1379 115.978 38.4014C115.451 38.6674 114.887 38.8527 114.305 38.9512C113.686 39.0522 113.059 39.1067 112.431 39.1143C112.137 39.1211 111.83 39.125 111.531 39.125L110.444 39.127L8.46856 39.125Z" fill="black"/>
<path d="M24.8384 20.3007C24.8492 19.466 25.0715 18.6476 25.4847 17.9217C25.8979 17.1957 26.4885 16.5858 27.2016 16.1486C26.7486 15.5035 26.151 14.9725 25.4562 14.598C24.7614 14.2234 23.9887 14.0156 23.1992 13.9909C21.5153 13.8147 19.8828 14.9958 19.0247 14.9958C18.1499 14.9958 16.8287 14.0084 15.406 14.0376C14.4858 14.0673 13.5889 14.3341 12.8028 14.8122C12.0168 15.2902 11.3683 15.9632 10.9205 16.7655C8.98111 20.1139 10.4278 25.035 12.2856 27.7416C13.2151 29.0669 14.3014 30.5474 15.7228 30.4949C17.1138 30.4374 17.6333 29.6104 19.3123 29.6104C20.9757 29.6104 21.4631 30.4949 22.9133 30.4615C24.4059 30.4373 25.3463 29.1303 26.2432 27.7924C26.911 26.848 27.4249 25.8043 27.7659 24.6999C26.8987 24.3341 26.1587 23.7219 25.6382 22.9396C25.1176 22.1574 24.8394 21.2395 24.8384 20.3007V20.3007Z" fill="white"/>
<path d="M22.0991 12.2109C22.9129 11.2367 23.3139 9.9845 23.2168 8.72027C21.9735 8.85049 20.825 9.44305 20.0002 10.3799C19.5969 10.8375 19.288 11.37 19.0913 11.9467C18.8945 12.5235 18.8136 13.1333 18.8533 13.7413C19.4751 13.7477 20.0904 13.6132 20.6526 13.3482C21.2148 13.0831 21.7094 12.6942 22.0991 12.2109Z" fill="white"/>
<path d="M42.421 27.1397H37.6743L36.5344 30.4961H34.5239L39.0199 18.0781H41.1088L45.6047 30.4961H43.56L42.421 27.1397ZM38.166 25.5908H41.9285L40.0737 20.1436H40.0218L38.166 25.5908Z" fill="white"/>
<path d="M55.3146 25.9697C55.3146 28.7832 53.8045 30.5908 51.5256 30.5908C50.9484 30.6209 50.3743 30.4883 49.869 30.2082C49.3638 29.9281 48.948 29.5117 48.669 29.0068H48.6259V33.4912H46.7623V21.4424H48.5662V22.9482H48.6005C48.8922 22.4458 49.3151 22.0316 49.8242 21.7497C50.3332 21.4679 50.9094 21.3289 51.4914 21.3477C53.7956 21.3477 55.3146 23.1641 55.3146 25.9697ZM53.399 25.9697C53.399 24.1367 52.4491 22.9316 50.9997 22.9316C49.5758 22.9316 48.6181 24.1621 48.6181 25.9697C48.6181 27.794 49.5758 29.0156 50.9997 29.0156C52.4491 29.0156 53.399 27.8193 53.399 25.9697Z" fill="white"/>
<path d="M65.3074 25.9697C65.3074 28.7832 63.7973 30.5908 61.5184 30.5908C60.9412 30.6209 60.3671 30.4883 59.8618 30.2082C59.3566 29.9281 58.9408 29.5117 58.6618 29.0068H58.6187V33.4912H56.7551V21.4424H58.5589V22.9482H58.5932C58.885 22.4458 59.3079 22.0316 59.817 21.7497C60.326 21.4679 60.9022 21.3289 61.4841 21.3477C63.7885 21.3477 65.3074 23.1641 65.3074 25.9697ZM63.3918 25.9697C63.3918 24.1367 62.4419 22.9316 60.9925 22.9316C59.5686 22.9316 58.6109 24.1621 58.6109 25.9697C58.6109 27.794 59.5686 29.0156 60.9925 29.0156C62.4419 29.0156 63.3918 27.8193 63.3918 25.9697H63.3918Z" fill="white"/>
<path d="M71.9118 27.0361C72.0499 28.2676 73.2495 29.0761 74.8889 29.0761C76.4597 29.0761 77.5898 28.2675 77.5898 27.1572C77.5898 26.1933 76.9082 25.6162 75.2943 25.2207L73.6804 24.833C71.3938 24.2822 70.3322 23.2158 70.3322 21.4853C70.3322 19.3427 72.2046 17.871 74.8634 17.871C77.4948 17.871 79.2987 19.3427 79.3594 21.4853H77.4781C77.3655 20.246 76.3382 19.498 74.837 19.498C73.3357 19.498 72.3084 20.2548 72.3084 21.3564C72.3084 22.2343 72.9645 22.7509 74.5696 23.1464L75.9416 23.4823C78.4966 24.0849 79.5582 25.1083 79.5582 26.9247C79.5582 29.248 77.7024 30.703 74.7508 30.703C71.9891 30.703 70.1245 29.2821 70.0041 27.036L71.9118 27.0361Z" fill="white"/>
<path d="M83.5802 19.2998V21.4424H85.3067V22.9141H83.5802V27.9053C83.5802 28.6807 83.9259 29.042 84.6848 29.042C84.8898 29.0384 85.0944 29.0241 85.2979 28.999V30.4619C84.9567 30.5255 84.6098 30.5543 84.2628 30.5478C82.4246 30.5478 81.7078 29.8593 81.7078 28.1035V22.9141H80.3877V21.4424H81.7077V19.2998H83.5802Z" fill="white"/>
<path d="M86.3066 25.9697C86.3066 23.1211 87.989 21.3311 90.6126 21.3311C93.245 21.3311 94.9196 23.1211 94.9196 25.9697C94.9196 28.8262 93.2538 30.6084 90.6126 30.6084C87.9724 30.6084 86.3066 28.8262 86.3066 25.9697ZM93.0207 25.9697C93.0207 24.0156 92.1227 22.8623 90.6126 22.8623C89.1025 22.8623 88.2055 24.0244 88.2055 25.9697C88.2055 27.9316 89.1025 29.0762 90.6126 29.0762C92.1227 29.0762 93.0207 27.9316 93.0207 25.9697H93.0207Z" fill="white"/>
<path d="M96.4561 21.4424H98.2335V22.9834H98.2766C98.3969 22.5021 98.6797 22.0768 99.0774 21.7789C99.4751 21.481 99.9635 21.3287 100.46 21.3476C100.675 21.3469 100.889 21.3702 101.099 21.417V23.1553C100.828 23.0726 100.545 23.0347 100.262 23.043C99.9909 23.032 99.721 23.0796 99.4705 23.1825C99.2199 23.2854 98.9947 23.4411 98.8102 23.639C98.6257 23.8369 98.4863 24.0723 98.4017 24.3289C98.317 24.5856 98.289 24.8575 98.3197 25.126V30.4961H96.4561L96.4561 21.4424Z" fill="white"/>
<path d="M109.691 27.8369C109.441 29.4805 107.836 30.6084 105.782 30.6084C103.141 30.6084 101.501 28.8437 101.501 26.0127C101.501 23.1728 103.15 21.3311 105.704 21.3311C108.216 21.3311 109.795 23.0517 109.795 25.7969V26.4336H103.383V26.5459C103.353 26.8791 103.395 27.2148 103.505 27.5306C103.616 27.8464 103.793 28.1352 104.024 28.3778C104.255 28.6203 104.535 28.8111 104.845 28.9374C105.156 29.0637 105.49 29.1226 105.825 29.1103C106.265 29.1515 106.707 29.0498 107.085 28.8203C107.463 28.5909 107.756 28.246 107.922 27.8369L109.691 27.8369ZM103.392 25.1348H107.931C107.947 24.8352 107.902 24.5354 107.797 24.2541C107.692 23.9729 107.53 23.7164 107.321 23.5006C107.111 23.2849 106.86 23.1145 106.582 23.0003C106.303 22.8861 106.004 22.8305 105.704 22.8369C105.4 22.8351 105.099 22.8932 104.819 23.008C104.538 23.1227 104.282 23.2918 104.067 23.5054C103.853 23.7191 103.682 23.973 103.566 24.2527C103.45 24.5323 103.391 24.8321 103.392 25.1348V25.1348Z" fill="white"/>
<path d="M37.9324 8.731C38.3231 8.70304 38.7151 8.7619 39.0803 8.90333C39.4454 9.04477 39.7745 9.26525 40.0439 9.54887C40.3132 9.8325 40.5161 10.1722 40.6378 10.5435C40.7595 10.9147 40.7971 11.3083 40.7479 11.6958C40.7479 13.6021 39.7147 14.6978 37.9324 14.6978H35.7711V8.731H37.9324ZM36.7004 13.854H37.8286C38.1078 13.8706 38.3871 13.825 38.6464 13.7204C38.9057 13.6158 39.1383 13.4548 39.3273 13.2492C39.5163 13.0437 39.657 12.7987 39.7391 12.5321C39.8212 12.2654 39.8426 11.9839 39.8019 11.708C39.8397 11.4332 39.8161 11.1534 39.7327 10.8887C39.6494 10.6241 39.5083 10.3811 39.3197 10.1771C39.1311 9.9732 38.8997 9.81339 38.6419 9.70916C38.3841 9.60492 38.1063 9.55884 37.8286 9.57421H36.7004V13.854Z" fill="white"/>
<path d="M41.7977 12.4443C41.7693 12.1484 41.8032 11.8498 41.8973 11.5678C41.9914 11.2857 42.1436 11.0264 42.3441 10.8064C42.5446 10.5864 42.789 10.4106 43.0616 10.2904C43.3343 10.1701 43.6291 10.108 43.9272 10.108C44.2253 10.108 44.5201 10.1701 44.7927 10.2904C45.0653 10.4106 45.3097 10.5864 45.5102 10.8064C45.7107 11.0264 45.8629 11.2857 45.957 11.5678C46.0511 11.8498 46.0851 12.1484 46.0567 12.4443C46.0856 12.7406 46.052 13.0395 45.9582 13.3221C45.8643 13.6046 45.7122 13.8644 45.5117 14.0848C45.3111 14.3052 45.0666 14.4814 44.7937 14.6019C44.5208 14.7224 44.2256 14.7847 43.9272 14.7847C43.6287 14.7847 43.3336 14.7224 43.0607 14.6019C42.7878 14.4814 42.5432 14.3052 42.3426 14.0848C42.1421 13.8644 41.99 13.6046 41.8961 13.3221C41.8023 13.0395 41.7687 12.7406 41.7977 12.4443V12.4443ZM45.14 12.4443C45.14 11.4683 44.7003 10.8975 43.9286 10.8975C43.154 10.8975 42.7182 11.4683 42.7182 12.4443C42.7182 13.4282 43.154 13.9946 43.9286 13.9946C44.7003 13.9946 45.14 13.4243 45.14 12.4443H45.14Z" fill="white"/>
<path d="M51.718 14.6977H50.7936L49.8603 11.3813H49.7898L48.8604 14.6977H47.9448L46.7001 10.1948H47.604L48.4129 13.6308H48.4795L49.4079 10.1948H50.2628L51.1912 13.6308H51.2617L52.0667 10.1948H52.9578L51.718 14.6977Z" fill="white"/>
<path d="M54.0047 10.1948H54.8626V10.9101H54.9292C55.0421 10.6532 55.2327 10.4379 55.4742 10.294C55.7158 10.1502 55.9963 10.0852 56.2767 10.1079C56.4964 10.0914 56.717 10.1245 56.9222 10.2046C57.1274 10.2846 57.3118 10.4098 57.4619 10.5706C57.612 10.7314 57.7239 10.9239 57.7893 11.1337C57.8547 11.3435 57.8719 11.5653 57.8397 11.7827V14.6977H56.9485V12.0059C56.9485 11.2822 56.6332 10.9224 55.9741 10.9224C55.8249 10.9154 55.676 10.9407 55.5375 10.9966C55.3991 11.0524 55.2744 11.1374 55.172 11.2458C55.0696 11.3542 54.9919 11.4834 54.9442 11.6245C54.8966 11.7656 54.8801 11.9154 54.8959 12.0635V14.6977H54.0047L54.0047 10.1948Z" fill="white"/>
<path d="M59.2596 8.437H60.1508V14.6977H59.2596V8.437Z" fill="white"/>
<path d="M61.3896 12.4443C61.3613 12.1484 61.3952 11.8498 61.4894 11.5677C61.5835 11.2857 61.7357 11.0263 61.9362 10.8063C62.1367 10.5863 62.3812 10.4106 62.6538 10.2903C62.9264 10.17 63.2212 10.1079 63.5194 10.1079C63.8175 10.1079 64.1123 10.17 64.385 10.2903C64.6576 10.4106 64.902 10.5863 65.1025 10.8063C65.3031 11.0263 65.4553 11.2857 65.5494 11.5677C65.6435 11.8498 65.6775 12.1484 65.6491 12.4443C65.678 12.7406 65.6444 13.0396 65.5505 13.3221C65.4567 13.6046 65.3045 13.8644 65.104 14.0848C64.9034 14.3052 64.6588 14.4814 64.3859 14.6019C64.113 14.7224 63.8178 14.7847 63.5194 14.7847C63.2209 14.7847 62.9257 14.7224 62.6528 14.6019C62.3799 14.4814 62.1353 14.3052 61.9348 14.0848C61.7342 13.8644 61.5821 13.6046 61.4882 13.3221C61.3943 13.0396 61.3607 12.7406 61.3896 12.4443V12.4443ZM64.732 12.4443C64.732 11.4683 64.2923 10.8975 63.5206 10.8975C62.746 10.8975 62.3102 11.4683 62.3102 12.4443C62.3102 13.4282 62.746 13.9946 63.5206 13.9946C64.2923 13.9946 64.732 13.4243 64.732 12.4443H64.732Z" fill="white"/>
<path d="M66.5873 13.4243C66.5873 12.6138 67.1925 12.1465 68.2668 12.0801L69.49 12.0098V11.6211C69.49 11.1455 69.1746 10.877 68.5655 10.877C68.068 10.877 67.7233 11.0591 67.6244 11.3774H66.7616C66.8527 10.604 67.5823 10.1079 68.6066 10.1079C69.7387 10.1079 70.3772 10.6699 70.3772 11.6211V14.6978H69.5193V14.0649H69.4488C69.3057 14.2919 69.1048 14.477 68.8665 14.6012C68.6282 14.7254 68.3611 14.7843 68.0925 14.7719C67.9029 14.7916 67.7113 14.7714 67.5301 14.7127C67.3488 14.654 67.1819 14.5581 67.0401 14.4312C66.8983 14.3042 66.7847 14.149 66.7067 13.9756C66.6287 13.8022 66.5881 13.6144 66.5873 13.4243V13.4243ZM69.49 13.0395V12.6631L68.3873 12.7334C67.7654 12.7749 67.4834 12.9858 67.4834 13.3828C67.4834 13.7881 67.8359 14.0239 68.3207 14.0239C68.4628 14.0383 68.6062 14.024 68.7426 13.9819C68.879 13.9398 69.0055 13.8708 69.1146 13.7789C69.2237 13.6871 69.3131 13.5743 69.3776 13.4473C69.4421 13.3202 69.4803 13.1816 69.49 13.0395V13.0395Z" fill="white"/>
<path d="M71.5485 12.4443C71.5485 11.0215 72.282 10.1201 73.4228 10.1201C73.7051 10.1071 73.9851 10.1746 74.2303 10.3144C74.4756 10.4543 74.6758 10.6609 74.8076 10.9101H74.8742V8.437H75.7653V14.6977H74.9114V13.9863H74.8409C74.6989 14.2338 74.4917 14.4378 74.2417 14.5763C73.9918 14.7148 73.7086 14.7824 73.4229 14.7719C72.2741 14.772 71.5485 13.8706 71.5485 12.4443ZM72.469 12.4443C72.469 13.3994 72.9205 13.9741 73.6755 13.9741C74.4267 13.9741 74.8909 13.3911 74.8909 12.4482C74.8909 11.5098 74.4218 10.9185 73.6755 10.9185C72.9254 10.9185 72.469 11.4971 72.469 12.4443H72.469Z" fill="white"/>
<path d="M79.4524 12.4443C79.424 12.1484 79.458 11.8498 79.5521 11.5678C79.6462 11.2857 79.7984 11.0264 79.9989 10.8064C80.1994 10.5864 80.4438 10.4106 80.7164 10.2904C80.989 10.1701 81.2838 10.108 81.5819 10.108C81.88 10.108 82.1748 10.1701 82.4475 10.2904C82.7201 10.4106 82.9645 10.5864 83.165 10.8064C83.3655 11.0264 83.5176 11.2857 83.6118 11.5678C83.7059 11.8498 83.7398 12.1484 83.7114 12.4443C83.7403 12.7406 83.7068 13.0395 83.6129 13.3221C83.5191 13.6046 83.367 13.8644 83.1664 14.0848C82.9659 14.3052 82.7213 14.4814 82.4484 14.6019C82.1755 14.7224 81.8804 14.7847 81.5819 14.7847C81.2835 14.7847 80.9883 14.7224 80.7154 14.6019C80.4425 14.4814 80.1979 14.3052 79.9974 14.0848C79.7968 13.8644 79.6447 13.6046 79.5509 13.3221C79.457 13.0395 79.4235 12.7406 79.4524 12.4443V12.4443ZM82.7948 12.4443C82.7948 11.4683 82.3551 10.8975 81.5834 10.8975C80.8088 10.8975 80.373 11.4683 80.373 12.4443C80.373 13.4282 80.8088 13.9946 81.5834 13.9946C82.3551 13.9946 82.7948 13.4243 82.7948 12.4443Z" fill="white"/>
<path d="M84.9071 10.1948H85.765V10.9101H85.8316C85.9446 10.6532 86.1351 10.4379 86.3767 10.294C86.6182 10.1502 86.8987 10.0852 87.1791 10.1079C87.3988 10.0914 87.6195 10.1245 87.8246 10.2046C88.0298 10.2846 88.2143 10.4098 88.3644 10.5706C88.5145 10.7314 88.6264 10.9239 88.6918 11.1337C88.7571 11.3435 88.7743 11.5653 88.7421 11.7827V14.6977H87.8509V12.0059C87.8509 11.2822 87.5356 10.9224 86.8765 10.9224C86.7273 10.9154 86.5784 10.9407 86.44 10.9966C86.3015 11.0524 86.1768 11.1374 86.0744 11.2458C85.972 11.3542 85.8943 11.4834 85.8467 11.6245C85.799 11.7656 85.7825 11.9154 85.7983 12.0635V14.6977H84.9071V10.1948Z" fill="white"/>
<path d="M93.7777 9.07373V10.2153H94.756V10.9639H93.7777V13.2793C93.7777 13.751 93.9726 13.9575 94.4162 13.9575C94.5297 13.9572 94.6432 13.9503 94.756 13.937V14.6772C94.596 14.7058 94.4338 14.721 94.2712 14.7226C93.2802 14.7226 92.8855 14.375 92.8855 13.5068V10.9638H92.1687V10.2153H92.8855V9.07373H93.7777Z" fill="white"/>
<path d="M95.9733 8.437H96.8566V10.9184H96.9271C97.0456 10.6591 97.2413 10.4425 97.4877 10.2982C97.7341 10.1538 98.0191 10.0888 98.304 10.1118C98.5225 10.0999 98.741 10.1363 98.9439 10.2184C99.1467 10.3004 99.3289 10.4261 99.4775 10.5864C99.626 10.7468 99.7372 10.9378 99.8032 11.146C99.8691 11.3541 99.8882 11.5742 99.8591 11.7905V14.6977H98.967V12.0097C98.967 11.2905 98.6311 10.9262 98.0014 10.9262C97.8483 10.9137 97.6942 10.9347 97.55 10.9878C97.4058 11.0408 97.275 11.1247 97.1667 11.2334C97.0584 11.3421 96.9753 11.4731 96.9231 11.6173C96.8709 11.7614 96.8509 11.9152 96.8645 12.0678V14.6977H95.9733L95.9733 8.437Z" fill="white"/>
<path d="M105.055 13.4819C104.934 13.8935 104.672 14.2495 104.314 14.4876C103.957 14.7258 103.526 14.8309 103.099 14.7847C102.801 14.7925 102.506 14.7357 102.232 14.6181C101.959 14.5006 101.715 14.3252 101.516 14.1041C101.318 13.8829 101.17 13.6214 101.083 13.3375C100.996 13.0537 100.972 12.7544 101.013 12.4604C100.973 12.1656 100.998 11.8656 101.084 11.581C101.171 11.2963 101.318 11.0335 101.515 10.8104C101.713 10.5874 101.956 10.4092 102.229 10.288C102.501 10.1668 102.796 10.1054 103.095 10.1079C104.351 10.1079 105.109 10.9639 105.109 12.3779V12.688H101.921V12.7378C101.907 12.903 101.927 13.0694 101.982 13.2261C102.036 13.3829 102.123 13.5266 102.236 13.648C102.349 13.7695 102.486 13.866 102.639 13.9314C102.792 13.9968 102.957 14.0296 103.123 14.0278C103.336 14.0533 103.552 14.015 103.744 13.9178C103.935 13.8206 104.093 13.6689 104.197 13.4819L105.055 13.4819ZM101.921 12.0308H104.201C104.213 11.8796 104.192 11.7278 104.141 11.5851C104.09 11.4424 104.009 11.3119 103.905 11.2021C103.8 11.0922 103.673 11.0054 103.533 10.9472C103.393 10.889 103.242 10.8608 103.09 10.8643C102.936 10.8623 102.783 10.8912 102.64 10.9491C102.497 11.0071 102.368 11.0929 102.259 11.2016C102.15 11.3104 102.064 11.4397 102.006 11.5821C101.947 11.7245 101.919 11.8771 101.921 12.0308H101.921Z" fill="white"/>
</g>
<defs>
<clipPath id="clip0_9_43">
<rect width="120" height="40" fill="white"/>
</clipPath>
</defs>
</svg>
