<svg xmlns="http://www.w3.org/2000/svg" viewBox="0 0 24 24">
    <path stroke="currentColor" d="M12,17.19a8,8,0,1,1,8-8A8,8,0,0,1,12,17.19Zm0-14a6,6,0,1,0,6,6A6,6,0,0,0,12,3.21Z"/>
    <path stroke="currentColor" d="M8.33,22.79a1.1,1.1,0,0,1-.55-.16,1,1,0,0,1-.45-.84V15.15a1,1,0,0,1,2,0v5.09l2.52-1.14a1,1,0,0,1,.82,1.83L8.74,22.7A1,1,0,0,1,8.33,22.79Z"/>
    <path stroke="currentColor" d="M16.19,22.79a1,1,0,0,1-.41-.09l-3.93-1.77a1,1,0,0,1,.82-1.83l2.52,1.14V15.15a1,1,0,0,1,2,0v6.64a1,1,0,0,1-.45.84A1.1,1.1,0,0,1,16.19,22.79Z"/>
</svg>
