<svg xmlns="http://www.w3.org/2000/svg" viewBox="0 0 454.479 454.479" width="512" height="512">
	<rect x="7.5" y="395.399" style="fill:white;" width="439.478" height="25.499"/>
    <path style="fill:#FFD039;" d="M117.872,33.098c27.75,0,50.24,22.5,50.24,50.25s-22.49,50.25-50.24,50.25s-50.25-22.5-50.25-50.25   S90.122,33.098,117.872,33.098z"/>
    <path style="fill:#CCCCCC;" d="M305.512,227.378h-55.18c0.55-2.17,1.08-4.34,1.6-6.5c15.04-62.36,18.65-120.2,18.76-160.45h7.23   h7.23c0.11,40.25,3.72,98.09,18.76,160.45C304.432,223.038,304.962,225.208,305.512,227.378z"/>
    <path style="fill:#CCCCCC;" d="M332.192,307.378h-29.77l-15.36-57h-18.27l-15.37,57h-29.77c11.35-26.74,20.04-53.73,26.68-80h55.18   C312.152,253.648,320.842,280.638,332.192,307.378z"/>
    <path style="fill:#CCCCCC;" d="M379.572,392.878h-41.69c0.03-0.66,0.04-1.33,0.04-2c0-33.14-26.86-60-60-60s-60,26.86-60,60   c0,0.67,0.01,1.34,0.04,2h-41.69c19.35-27.21,34.82-55.95,47.17-85c0.07-0.17,0.14-0.33,0.21-0.5h29.77h49h29.77   c0.07,0.17,0.14,0.33,0.21,0.5C344.752,336.928,360.222,365.668,379.572,392.878z"/>
    <path style="fill:white;" d="M417.452,341.878v7.5c0,7.46-6.04,13.5-13.5,13.5c-7.45,0-13.5-6.04-13.5-13.5v-7.5   c0-7.45,6.05-13.5,13.5-13.5c3.73,0,7.11,1.51,9.55,3.96C415.942,334.778,417.452,338.148,417.452,341.878z"/>
    <path style="fill:white;" d="M60.472,341.878v7.5c0,7.46-6.04,13.5-13.5,13.5s-13.5-6.04-13.5-13.5v-7.5   c0-7.45,6.04-13.5,13.5-13.5c3.73,0,7.11,1.51,9.55,3.96C58.962,334.778,60.472,338.148,60.472,341.878z"/>
    <path style="fill:white;" d="M107.722,341.878v7.5c0,7.46-6.05,13.5-13.5,13.5c-7.46,0-13.5-6.04-13.5-13.5v-7.5   c0-7.45,6.04-13.5,13.5-13.5c3.72,0,7.1,1.51,9.54,3.96C106.212,334.778,107.722,338.148,107.722,341.878z"/>
    <path style="fill:white;" d="M154.962,341.878v7.5c0,7.46-6.04,13.5-13.5,13.5c-7.45,0-13.49-6.04-13.49-13.5v-7.5   c0-7.45,6.04-13.5,13.49-13.5c3.73,0,7.1,1.51,9.55,3.96C153.452,334.778,154.962,338.148,154.962,341.878z"/>
    <g>
		<path style="fill:#333333;" d="M7.5,400.38h439.479c4.143,0,7.5-3.358,7.5-7.5s-3.357-7.5-7.5-7.5h-35.524v-16.407    c7.881-3.028,13.499-10.656,13.499-19.591v-7.5c0-11.579-9.42-20.999-20.999-20.999s-20.999,9.42-20.999,20.999v7.5    c0,8.934,5.618,16.563,13.499,19.591v16.407h-12.975c-15.017-21.552-28.375-45.209-39.808-70.5h2.755c4.143,0,7.5-3.358,7.5-7.5    s-3.357-7.5-7.5-7.5h-9.213c-8.465-20.524-15.842-42.315-21.974-65h0.521c4.143,0,7.5-3.358,7.5-7.5s-3.357-7.5-7.5-7.5h-4.366    c-0.061-0.252-0.126-0.506-0.187-0.758c-15.145-62.795-18.447-120.969-18.551-158.712c-0.011-4.043-3.222-7.323-7.229-7.466    V33.429c0-4.142-3.357-7.5-7.5-7.5s-7.5,3.358-7.5,7.5v19.514c-4.008,0.143-7.219,3.423-7.23,7.466    c-0.104,37.744-3.406,95.917-18.551,158.713c-0.061,0.251-0.126,0.506-0.187,0.757h-4.362c-4.143,0-7.5,3.358-7.5,7.5    s3.357,7.5,7.5,7.5h0.517c-6.131,22.68-13.508,44.472-21.975,65h-9.209c-4.143,0-7.5,3.358-7.5,7.5s3.357,7.5,7.5,7.5h2.751    c-11.432,25.29-24.79,48.947-39.808,70.5h-23.405v-16.407c7.881-3.028,13.5-10.656,13.5-19.591v-7.5    c0-11.579-9.421-20.999-21-20.999s-20.999,9.42-20.999,20.999v7.5c0,8.934,5.618,16.563,13.499,19.591v16.407H101.72v-16.407    c7.881-3.028,13.499-10.656,13.499-19.591v-7.5c0-11.579-9.42-20.999-20.999-20.999s-21,9.42-21,20.999v7.5    c0,8.934,5.619,16.563,13.5,19.591v16.407H54.472v-16.407c7.881-3.028,13.5-10.656,13.5-19.591v-7.5    c0-11.579-9.421-20.999-21-20.999s-20.999,9.42-20.999,20.999v7.5c0,8.934,5.618,16.563,13.499,19.591v16.407H7.5    c-4.143,0-7.5,3.358-7.5,7.5S3.357,400.38,7.5,400.38z M397.955,341.882c0-3.308,2.691-5.999,5.999-5.999s5.999,2.691,5.999,5.999    v7.5c0,3.308-2.691,5.999-5.999,5.999s-5.999-2.691-5.999-5.999V341.882z M135.468,341.882c0-3.308,2.691-5.999,5.999-5.999    c3.309,0,6,2.691,6,5.999v7.5c0,3.308-2.691,5.999-6,5.999c-3.308,0-5.999-2.691-5.999-5.999V341.882z M88.22,341.882    c0-3.308,2.691-5.999,6-5.999c3.308,0,5.999,2.691,5.999,5.999v7.5c0,3.308-2.691,5.999-5.999,5.999c-3.309,0-6-2.691-6-5.999    V341.882z M40.973,341.882c0-3.308,2.691-5.999,5.999-5.999c3.309,0,6,2.691,6,5.999v7.5c0,3.308-2.691,5.999-6,5.999    c-3.308,0-5.999-2.691-5.999-5.999V341.882z M225.715,385.38c2.759-26.373,25.12-47,52.211-47s49.452,20.627,52.211,47H225.715z     M277.926,78.154c1.026,37.244,5.28,87.706,18.046,141.726h-36.092C272.645,165.86,276.898,115.398,277.926,78.154z     M256.12,234.88h43.611c5.944,22.591,13.071,44.388,21.282,65h-12.84l-13.867-51.452c-0.882-3.274-3.851-5.548-7.241-5.548    h-18.275c-3.391,0-6.359,2.274-7.241,5.548l-13.867,51.452h-12.843C243.05,279.265,250.177,257.468,256.12,234.88z     M292.638,299.879h-29.423l11.32-42h6.783L292.638,299.879z M228.567,314.879h98.717c10.939,25.108,23.688,48.761,38.057,70.5    h-20.137c-2.808-34.657-31.91-62-67.278-62s-64.471,27.343-67.278,62H190.51C204.879,363.639,217.627,339.986,228.567,314.879z"/>
        <path style="fill:#333333;" d="M446.979,413.878H7.5c-4.143,0-7.5,3.358-7.5,7.5s3.357,7.5,7.5,7.5h439.479    c4.143,0,7.5-3.358,7.5-7.5S451.121,413.878,446.979,413.878z"/>
        <path style="fill:#333333;" d="M117.869,141.095c31.843,0,57.748-25.905,57.748-57.748S149.712,25.6,117.869,25.6    c-31.842,0-57.747,25.905-57.747,57.748S86.027,141.095,117.869,141.095z M117.869,40.6c23.571,0,42.748,19.176,42.748,42.748    s-19.177,42.748-42.748,42.748s-42.747-19.176-42.747-42.748S94.298,40.6,117.869,40.6z"/>
	</g>
</svg>
