<svg xmlns="http://www.w3.org/2000/svg" width="48" height="48" viewBox="0 0 48 48" fill="none">
    <path d="M18.375 44.25C27.6948 44.25 35.25 36.6948 35.25 27.375C35.25 18.0552 27.6948 10.5 18.375 10.5C9.05519 10.5 1.5 18.0552 1.5 27.375C1.5 36.6948 9.05519 44.25 18.375 44.25Z" fill="#FFDED5"/>
    <path d="M3.375 34.5C4.41053 34.5 5.25 33.6605 5.25 32.625C5.25 31.5895 4.41053 30.75 3.375 30.75C2.33947 30.75 1.5 31.5895 1.5 32.625C1.5 33.6605 2.33947 34.5 3.375 34.5Z" stroke="#4C241D" stroke-width="2" stroke-linecap="round" stroke-linejoin="round"/>
    <path d="M7.52026 19.5L6.71476 19.9028C6.55773 19.9808 6.41764 20.0891 6.30248 20.2213C6.18733 20.3536 6.09937 20.5072 6.04365 20.6735C5.98792 20.8398 5.96552 21.0154 5.97772 21.1903C5.98992 21.3653 6.03649 21.5361 6.11476 21.693L10.1888 29.841C10.3102 30.0837 10.3546 30.3576 10.3163 30.6262L10.107 32.0902C10.08 32.2795 10.0941 32.4724 10.1481 32.6558C10.2021 32.8392 10.295 33.0089 10.4203 33.1533C10.5456 33.2978 10.7004 33.4136 10.8744 33.493C11.0483 33.5724 11.2373 33.6135 11.4285 33.6135V33.6135C11.6921 33.6133 11.9497 33.535 12.1688 33.3885L14.4105 31.8938C14.6297 31.7475 14.8872 31.6693 15.1508 31.6687H16.3268C16.6807 31.6685 17.0201 31.5278 17.2703 31.2775C17.5205 31.0271 17.661 30.6877 17.661 30.3337V30.0885C17.6612 29.7347 17.8018 29.3954 18.052 29.1453C18.3022 28.8951 18.6414 28.7544 18.9953 28.7542H25.851C26.0262 28.7541 26.1998 28.7886 26.3617 28.8556C26.5236 28.9227 26.6707 29.021 26.7945 29.145L29.325 31.6717V32.6467H31.2C31.4977 32.6468 31.7868 32.7464 32.0215 32.9295C32.2561 33.1127 32.4229 33.369 32.4953 33.6577L32.961 36.4928C33.0337 36.7796 33.1996 37.0342 33.4327 37.2166C33.6658 37.3989 33.9528 37.4986 34.2488 37.5H36.2678C36.5157 37.4999 36.7586 37.4308 36.9695 37.3005C37.1804 37.1701 37.3508 36.9837 37.4618 36.762L37.695 36.2948C37.806 36.0731 37.9764 35.8868 38.1873 35.7566C38.3982 35.6264 38.6412 35.5574 38.889 35.5575H40.2038C40.683 35.5575 41.1248 34.329 41.3625 33.9135L44.7563 27.9735C44.8277 27.849 44.8784 27.7138 44.9063 27.573L45.7373 23.4188C45.8003 23.1027 45.747 22.7746 45.5873 22.4947L42.2025 16.575C42.039 16.2913 41.7769 16.0777 41.466 15.975L39.8453 15.435C39.6035 15.3543 39.3898 15.206 39.2297 15.0077C39.0695 14.8094 38.9695 14.5694 38.9415 14.316L38.6303 11.5147C38.6056 11.2933 38.5259 11.0816 38.3984 10.8988C38.271 10.7161 38.0998 10.5681 37.9005 10.4685L37.3448 10.191C37.1231 10.0801 36.9366 9.90962 36.8063 9.69875C36.6759 9.48788 36.6069 9.2449 36.6068 8.997V6.9H35.6355L33.357 10.6972C33.1841 10.9857 32.9086 11.1982 32.5857 11.2922C32.2627 11.3862 31.9162 11.3548 31.6155 11.2042L29.871 10.332C29.5837 10.1884 29.3578 9.94592 29.2348 9.64919C29.1118 9.35245 29.0999 9.0213 29.2013 8.7165L29.2215 8.6565C29.2883 8.4559 29.3064 8.24231 29.2745 8.03333C29.2425 7.82434 29.1614 7.62592 29.0378 7.45442C28.9142 7.28291 28.7516 7.14321 28.5634 7.04682C28.3753 6.95043 28.1669 6.90011 27.9555 6.9H24.8055C24.5576 6.9001 24.3146 6.96918 24.1037 7.09952C23.8929 7.22986 23.7224 7.41631 23.6115 7.638L22.5165 9.828C22.3807 10.0994 22.1565 10.3165 21.8809 10.4434C21.6052 10.5704 21.2945 10.5996 21 10.5262L19.0343 10.035C18.7743 9.9699 18.5007 9.98459 18.2493 10.0772C17.9978 10.1697 17.78 10.3359 17.6243 10.554L13.485 16.3447C13.3586 16.5219 13.1907 16.6654 12.996 16.7625L10.8113 17.8552" fill="#FFCE56"/>
    <path d="M7.52026 19.5L6.71476 19.9028C6.55773 19.9808 6.41764 20.0891 6.30248 20.2213C6.18733 20.3536 6.09937 20.5072 6.04365 20.6735C5.98792 20.8398 5.96552 21.0154 5.97772 21.1903C5.98992 21.3653 6.03649 21.5361 6.11476 21.693L10.1888 29.841C10.3102 30.0837 10.3546 30.3576 10.3163 30.6262L10.107 32.0902C10.08 32.2795 10.0941 32.4724 10.1481 32.6558C10.2021 32.8392 10.295 33.0089 10.4203 33.1533C10.5456 33.2978 10.7004 33.4136 10.8744 33.493C11.0483 33.5724 11.2373 33.6135 11.4285 33.6135V33.6135C11.6921 33.6133 11.9497 33.535 12.1688 33.3885L14.4105 31.8938C14.6297 31.7475 14.8872 31.6693 15.1508 31.6687H16.3268C16.6807 31.6685 17.0201 31.5278 17.2703 31.2775C17.5205 31.0271 17.661 30.6877 17.661 30.3337V30.0885C17.6612 29.7347 17.8018 29.3954 18.052 29.1453C18.3022 28.8951 18.6414 28.7544 18.9953 28.7542H25.851C26.0262 28.7541 26.1998 28.7886 26.3617 28.8556C26.5236 28.9227 26.6707 29.021 26.7945 29.145L29.325 31.6717V32.6467H31.2C31.4977 32.6468 31.7868 32.7464 32.0215 32.9295C32.2561 33.1127 32.4229 33.369 32.4953 33.6577L32.961 36.4928C33.0337 36.7796 33.1996 37.0342 33.4327 37.2166C33.6658 37.3989 33.9528 37.4986 34.2488 37.5H36.2678C36.5157 37.4999 36.7586 37.4308 36.9695 37.3005C37.1804 37.1701 37.3508 36.9837 37.4618 36.762L37.695 36.2948C37.806 36.0731 37.9764 35.8868 38.1873 35.7566C38.3982 35.6264 38.6412 35.5574 38.889 35.5575H40.2038C40.683 35.5575 41.1248 34.329 41.3625 33.9135L44.7563 27.9735C44.8277 27.849 44.8784 27.7138 44.9063 27.573L45.7373 23.4188C45.8003 23.1027 45.747 22.7746 45.5873 22.4947L42.2025 16.575C42.039 16.2913 41.7769 16.0777 41.466 15.975L39.8453 15.435C39.6035 15.3543 39.3898 15.206 39.2297 15.0077C39.0695 14.8094 38.9695 14.5694 38.9415 14.316L38.6303 11.5147C38.6056 11.2933 38.5259 11.0816 38.3984 10.8988C38.271 10.7161 38.0998 10.5681 37.9005 10.4685L37.3448 10.191C37.1231 10.0801 36.9366 9.90962 36.8063 9.69875C36.6759 9.48788 36.6069 9.2449 36.6068 8.997V6.9H35.6355L33.357 10.6972C33.1841 10.9857 32.9086 11.1982 32.5857 11.2922C32.2627 11.3862 31.9162 11.3548 31.6155 11.2042L29.871 10.332C29.5837 10.1884 29.3578 9.94592 29.2348 9.64919C29.1118 9.35245 29.0999 9.0213 29.2013 8.7165L29.2215 8.6565C29.2883 8.4559 29.3064 8.24231 29.2745 8.03333C29.2425 7.82434 29.1614 7.62592 29.0378 7.45442C28.9142 7.28291 28.7516 7.14321 28.5634 7.04682C28.3753 6.95043 28.1669 6.90011 27.9555 6.9H24.8055C24.5576 6.9001 24.3146 6.96918 24.1037 7.09952C23.8929 7.22986 23.7224 7.41631 23.6115 7.638L22.5165 9.828C22.3807 10.0994 22.1565 10.3165 21.8809 10.4434C21.6052 10.5704 21.2945 10.5996 21 10.5262L19.0343 10.035C18.7743 9.9699 18.5007 9.98459 18.2493 10.0772C17.9978 10.1697 17.78 10.3359 17.6243 10.554L13.485 16.3447C13.3586 16.5219 13.1907 16.6654 12.996 16.7625L10.8113 17.8552" stroke="#4C241D" stroke-width="2" stroke-linecap="round" stroke-linejoin="round"/>
    <path d="M14.805 39.792C15.2478 39.792 15.6068 39.433 15.6068 38.9902C15.6068 38.5475 15.2478 38.1885 14.805 38.1885C14.3622 38.1885 14.0033 38.5475 14.0033 38.9902C14.0033 39.433 14.3622 39.792 14.805 39.792Z" fill="#4C241D"/>
    <path d="M23.25 37.5V39" stroke="#4C241D" stroke-width="2" stroke-linecap="round" stroke-linejoin="round"/>
    <path d="M23.25 42V43.5" stroke="#4C241D" stroke-width="2" stroke-linecap="round" stroke-linejoin="round"/>
    <path d="M20.25 40.5H21.75" stroke="#4C241D" stroke-width="2" stroke-linecap="round" stroke-linejoin="round"/>
    <path d="M24.75 40.5H26.25" stroke="#4C241D" stroke-width="2" stroke-linecap="round" stroke-linejoin="round"/>
    <path d="M33.825 40.5H36.675C36.7616 40.4999 36.8468 40.522 36.9224 40.5641C36.9981 40.6063 37.0617 40.667 37.1073 40.7407C37.1528 40.8144 37.1788 40.8985 37.1827 40.985C37.1866 41.0715 37.1683 41.1576 37.1295 41.235L36 44.25L33.3675 41.235C33.3286 41.1573 33.3103 41.071 33.3143 40.9842C33.3184 40.8974 33.3446 40.8132 33.3905 40.7394C33.4364 40.6657 33.5004 40.6049 33.5765 40.563C33.6526 40.5211 33.7381 40.4994 33.825 40.5Z" fill="#FFCE56" stroke="#4C241D" stroke-width="2" stroke-linecap="round" stroke-linejoin="round"/>
    <path d="M11.8357 3.9945C10.2761 4.01368 8.7879 4.65144 7.69835 5.76758C6.6088 6.88371 6.00708 8.38684 6.0255 9.9465C6.0255 13.2338 11.8357 21 11.8357 21C11.8357 21 17.646 13.2338 17.646 9.9465C17.6646 8.38678 17.063 6.88354 15.9734 5.76736C14.8838 4.65118 13.3955 4.01348 11.8357 3.9945V3.9945ZM11.8357 12.9593C11.2368 12.974 10.647 12.8099 10.1417 12.4878C9.63646 12.1658 9.23868 11.7004 8.99919 11.1512C8.7597 10.6019 8.68937 9.9938 8.79718 9.40441C8.905 8.81502 9.18607 8.27115 9.60448 7.84227C10.0229 7.4134 10.5597 7.11899 11.1462 6.99665C11.7328 6.87431 12.3425 6.9296 12.8974 7.15546C13.4524 7.38131 13.9274 7.76748 14.2619 8.26462C14.5963 8.76177 14.775 9.34733 14.775 9.9465C14.7844 10.7357 14.4801 11.4963 13.929 12.0612C13.3778 12.6262 12.6249 12.9492 11.8357 12.9593V12.9593Z" fill="#F96E43" stroke="#4C241D" stroke-width="2" stroke-linecap="round" stroke-linejoin="round"/>
    <path d="M35.8357 16.7445C34.2761 16.7637 32.7879 17.4014 31.6984 18.5176C30.6088 19.6337 30.0071 21.1368 30.0255 22.6965C30.0255 25.9837 35.8357 33.75 35.8357 33.75C35.8357 33.75 41.646 25.9837 41.646 22.6965C41.6646 21.1368 41.063 19.6335 39.9734 18.5174C38.8838 17.4012 37.3955 16.7635 35.8357 16.7445ZM35.8357 25.7092C35.2368 25.724 34.647 25.5599 34.1417 25.2378C33.6365 24.9158 33.2387 24.4504 32.9992 23.9012C32.7597 23.3519 32.6894 22.7438 32.7972 22.1544C32.905 21.565 33.1861 21.0211 33.6045 20.5923C34.0229 20.1634 34.5597 19.869 35.1462 19.7466C35.7328 19.6243 36.3425 19.6796 36.8974 19.9055C37.4524 20.1313 37.9274 20.5175 38.2619 21.0146C38.5963 21.5118 38.775 22.0973 38.775 22.6965C38.7844 23.4857 38.4801 24.2463 37.929 24.8112C37.3778 25.3762 36.6249 25.6992 35.8357 25.7092V25.7092Z" fill="#A9BA5A" stroke="#4C241D" stroke-width="2" stroke-linecap="round" stroke-linejoin="round"/>
</svg>
